0 Harbour Lighthouse
0 Name: harbour-lighthouse.ldr
0 Author: Open Conjecture
0 Unofficial fan design generated with Snapwright. Not affiliated with any brick manufacturer.
1 72 80 -8 -70 1 0 0 0 1 0 0 0 1 3023.dat
1 72 110 -8 -50 1 0 0 0 1 0 0 0 1 3623.dat
1 72 120 -24 -140 0 0 1 0 1 0 -1 0 0 3007.dat
1 72 140 -8 -30 1 0 0 0 1 0 0 0 1 3023.dat
1 72 150 -24 -120 0 0 1 0 1 0 -1 0 0 3008.dat
1 72 200 -8 -40 0 0 1 0 1 0 -1 0 0 3020.dat
1 72 270 -8 -40 0 0 1 0 1 0 -1 0 0 3710.dat
1 72 290 -24 -120 0 0 1 0 1 0 -1 0 0 3008.dat
1 72 300 -8 -30 1 0 0 0 1 0 0 0 1 3023.dat
1 72 320 -24 -140 0 0 1 0 1 0 -1 0 0 3007.dat
1 72 330 -8 -50 1 0 0 0 1 0 0 0 1 3623.dat
0 STEP
1 72 360 -8 -70 1 0 0 0 1 0 0 0 1 3023.dat
1 72 30 -8 -200 0 0 1 0 1 0 -1 0 0 3460.dat
1 72 50 -24 -220 0 0 1 0 1 0 -1 0 0 3008.dat
1 72 50 -8 -110 0 0 1 0 1 0 -1 0 0 3623.dat
1 72 70 -24 -180 0 0 1 0 1 0 -1 0 0 3008.dat
1 72 70 -8 -90 1 0 0 0 1 0 0 0 1 3024.dat
1 72 90 -24 -160 0 0 1 0 1 0 -1 0 0 3008.dat
1 72 170 -24 -160 0 0 1 0 1 0 -1 0 0 3008.dat
1 72 200 -24 -180 0 0 1 0 1 0 -1 0 0 3007.dat
1 72 220 -8 -90 1 0 0 0 1 0 0 0 1 3710.dat
1 72 240 -24 -180 0 0 1 0 1 0 -1 0 0 3007.dat
0 STEP
1 72 270 -24 -160 0 0 1 0 1 0 -1 0 0 3008.dat
1 72 350 -24 -160 0 0 1 0 1 0 -1 0 0 3008.dat
1 72 370 -24 -180 0 0 1 0 1 0 -1 0 0 3008.dat
1 72 390 -24 -200 0 0 1 0 1 0 -1 0 0 3009.dat
1 72 410 -8 -200 0 0 1 0 1 0 -1 0 0 3460.dat
1 72 10 -8 -230 1 0 0 0 1 0 0 0 1 3024.dat
1 72 120 -24 -300 0 0 1 0 1 0 -1 0 0 3007.dat
1 72 150 -24 -280 0 0 1 0 1 0 -1 0 0 3008.dat
1 72 290 -24 -280 0 0 1 0 1 0 -1 0 0 3008.dat
1 72 320 -24 -300 0 0 1 0 1 0 -1 0 0 3007.dat
1 72 430 -8 -220 0 0 1 0 1 0 -1 0 0 3666.dat
0 STEP
1 72 10 -8 -250 1 0 0 0 1 0 0 0 1 3024.dat
1 72 50 -8 -330 0 0 1 0 1 0 -1 0 0 3623.dat
1 72 70 -24 -300 0 0 1 0 1 0 -1 0 0 3010.dat
1 72 90 -24 -300 0 0 1 0 1 0 -1 0 0 3009.dat
1 72 170 -24 -320 0 0 1 0 1 0 -1 0 0 3008.dat
1 72 200 -24 -320 0 0 1 0 1 0 -1 0 0 2456.dat
1 72 240 -24 -320 0 0 1 0 1 0 -1 0 0 2456.dat
1 72 270 -24 -320 0 0 1 0 1 0 -1 0 0 3008.dat
1 72 350 -24 -300 0 0 1 0 1 0 -1 0 0 3009.dat
1 72 370 -24 -300 0 0 1 0 1 0 -1 0 0 3010.dat
1 72 390 -24 -270 1 0 0 0 1 0 0 0 1 3005.dat
0 STEP
1 72 400 -8 -300 1 0 0 0 1 0 0 0 1 3022.dat
1 72 70 -8 -360 0 0 1 0 1 0 -1 0 0 3023.dat
1 72 150 -24 -380 0 0 1 0 1 0 -1 0 0 3004.dat
1 72 220 -24 -390 1 0 0 0 1 0 0 0 1 3010.dat
1 72 290 -24 -380 0 0 1 0 1 0 -1 0 0 3004.dat
1 72 350 -8 -380 0 0 1 0 1 0 -1 0 0 3023.dat
1 72 370 -8 -360 0 0 1 0 1 0 -1 0 0 3023.dat
1 72 390 -8 -340 0 0 1 0 1 0 -1 0 0 3023.dat
1 72 200 -8 -410 1 0 0 0 1 0 0 0 1 3460.dat
1 72 220 -8 -430 1 0 0 0 1 0 0 0 1 3666.dat
1 72 290 -8 -410 1 0 0 0 1 0 0 0 1 3024.dat
0 STEP
1 71 170 -8 -40 0 0 1 0 1 0 -1 0 0 3710.dat
1 71 240 -8 -40 0 0 1 0 1 0 -1 0 0 3020.dat
1 71 380 -8 -90 1 0 0 0 1 0 0 0 1 3023.dat
1 71 390 -8 -120 0 0 1 0 1 0 -1 0 0 3023.dat
1 71 10 -8 -190 0 0 1 0 1 0 -1 0 0 3623.dat
1 71 10 -8 -270 1 0 0 0 1 0 0 0 1 3024.dat
1 71 30 -8 -300 0 0 1 0 1 0 -1 0 0 3023.dat
1 71 90 -8 -380 0 0 1 0 1 0 -1 0 0 3023.dat
1 71 120 -8 -390 1 0 0 0 1 0 0 0 1 3023.dat
1 71 320 -8 -390 1 0 0 0 1 0 0 0 1 3023.dat
1 71 310 -8 -410 1 0 0 0 1 0 0 0 1 3024.dat
0 STEP
1 72 70 -16 -70 1 0 0 0 1 0 0 0 1 3024.dat
1 72 90 -16 -60 0 0 1 0 1 0 -1 0 0 3023.dat
1 72 120 -16 -50 1 0 0 0 1 0 0 0 1 3023.dat
1 72 200 -16 -30 1 0 0 0 1 0 0 0 1 3460.dat
1 72 220 -16 -60 1 0 0 0 1 0 0 0 1 3795.dat
1 72 200 -16 -10 1 0 0 0 1 0 0 0 1 3023.dat
1 72 270 -16 -10 1 0 0 0 1 0 0 0 1 3024.dat
1 72 290 -16 -30 1 0 0 0 1 0 0 0 1 3024.dat
1 72 310 -16 -40 0 0 1 0 1 0 -1 0 0 3023.dat
1 72 340 -16 -50 1 0 0 0 1 0 0 0 1 3023.dat
1 72 350 -16 -70 1 0 0 0 1 0 0 0 1 3024.dat
1 72 370 -16 -80 0 0 1 0 1 0 -1 0 0 3023.dat
0 STEP
1 72 40 -16 -130 1 0 0 0 1 0 0 0 1 3023.dat
1 72 30 -16 -150 1 0 0 0 1 0 0 0 1 3024.dat
1 72 60 -16 -90 1 0 0 0 1 0 0 0 1 3023.dat
1 72 50 -16 -110 1 0 0 0 1 0 0 0 1 3024.dat
1 72 210 -16 -90 1 0 0 0 1 0 0 0 1 3623.dat
1 72 250 -16 -90 1 0 0 0 1 0 0 0 1 3024.dat
1 72 410 -16 -180 0 0 1 0 1 0 -1 0 0 3666.dat
1 72 20 -16 -240 1 0 0 0 1 0 0 0 1 3022.dat
1 72 430 -16 -200 0 0 1 0 1 0 -1 0 0 3710.dat
1 72 390 -16 -310 0 0 1 0 1 0 -1 0 0 3623.dat
1 72 420 -16 -260 1 0 0 0 1 0 0 0 1 3022.dat
1 72 410 -16 -310 1 0 0 0 1 0 0 0 1 3024.dat
0 STEP
1 72 50 -16 -340 0 0 1 0 1 0 -1 0 0 3023.dat
1 72 70 -16 -350 1 0 0 0 1 0 0 0 1 3024.dat
1 72 80 -16 -370 1 0 0 0 1 0 0 0 1 3023.dat
1 72 360 -16 -370 1 0 0 0 1 0 0 0 1 3023.dat
1 72 350 -16 -390 1 0 0 0 1 0 0 0 1 3024.dat
1 72 380 -16 -350 1 0 0 0 1 0 0 0 1 3023.dat
1 72 180 -16 -410 1 0 0 0 1 0 0 0 1 3666.dat
1 72 200 -16 -430 1 0 0 0 1 0 0 0 1 3710.dat
1 72 260 -16 -420 1 0 0 0 1 0 0 0 1 3022.dat
1 72 290 -16 -410 1 0 0 0 1 0 0 0 1 3024.dat
1 71 170 -16 -10 1 0 0 0 1 0 0 0 1 3024.dat
1 71 240 -16 -10 1 0 0 0 1 0 0 0 1 3023.dat
0 STEP
1 71 390 -16 -110 0 0 1 0 1 0 -1 0 0 3623.dat
1 71 20 -16 -190 0 0 1 0 1 0 -1 0 0 3021.dat
1 71 20 -16 -270 1 0 0 0 1 0 0 0 1 3023.dat
1 71 30 -16 -290 1 0 0 0 1 0 0 0 1 3024.dat
1 71 40 -16 -310 1 0 0 0 1 0 0 0 1 3023.dat
1 71 410 -16 -290 1 0 0 0 1 0 0 0 1 3024.dat
1 71 110 -16 -390 1 0 0 0 1 0 0 0 1 3623.dat
1 71 310 -16 -400 0 0 1 0 1 0 -1 0 0 3023.dat
1 71 330 -16 -390 1 0 0 0 1 0 0 0 1 3024.dat
0 STEP
1 72 70 -24 -70 1 0 0 0 1 0 0 0 1 3070b.dat
1 72 90 -24 -70 1 0 0 0 1 0 0 0 1 3024.dat
1 72 90 -24 -50 1 0 0 0 1 0 0 0 1 3070b.dat
1 72 110 -24 -50 1 0 0 0 1 0 0 0 1 3024.dat
1 72 130 -24 -50 1 0 0 0 1 0 0 0 1 3024.dat
1 72 130 -24 -30 1 0 0 0 1 0 0 0 1 3070b.dat
1 72 170 -24 -30 1 0 0 0 1 0 0 0 1 3623.dat
1 72 180 -24 -60 1 0 0 0 1 0 0 0 1 3022.dat
1 72 190 -24 -10 1 0 0 0 1 0 0 0 1 3070b.dat
1 72 210 -24 -10 1 0 0 0 1 0 0 0 1 3070b.dat
1 72 250 -24 -60 0 0 1 0 1 0 -1 0 0 3710.dat
0 STEP
1 72 270 -24 -50 0 0 1 0 1 0 -1 0 0 3623.dat
1 72 270 -24 -10 1 0 0 0 1 0 0 0 1 3070b.dat
1 72 290 -24 -30 1 0 0 0 1 0 0 0 1 3024.dat
1 72 320 -24 -50 1 0 0 0 1 0 0 0 1 3023.dat
1 72 350 -24 -70 1 0 0 0 1 0 0 0 1 3024.dat
1 72 350 -24 -50 1 0 0 0 1 0 0 0 1 3070b.dat
1 72 370 -24 -70 1 0 0 0 1 0 0 0 1 3070b.dat
1 72 30 -24 -200 0 0 1 0 1 0 -1 0 0 3666.dat
1 72 30 -24 -130 1 0 0 0 1 0 0 0 1 3070b.dat
1 72 50 -24 -120 0 0 1 0 1 0 -1 0 0 3023.dat
1 72 50 -24 -90 1 0 0 0 1 0 0 0 1 3070b.dat
0 STEP
1 72 70 -24 -90 1 0 0 0 1 0 0 0 1 3024.dat
1 72 190 -24 -90 1 0 0 0 1 0 0 0 1 3024.dat
1 72 370 -24 -90 1 0 0 0 1 0 0 0 1 3024.dat
1 72 410 -24 -200 0 0 1 0 1 0 -1 0 0 3666.dat
1 72 410 -24 -130 1 0 0 0 1 0 0 0 1 3070b.dat
1 72 10 -24 -240 0 0 1 0 1 0 -1 0 0 3069b.dat
1 72 430 -24 -220 0 0 1 0 1 0 -1 0 0 6636.dat
1 72 50 -24 -320 0 0 1 0 1 0 -1 0 0 3023.dat
1 72 390 -24 -300 0 0 1 0 1 0 -1 0 0 3023.dat
1 72 410 -24 -310 1 0 0 0 1 0 0 0 1 3070b.dat
1 72 50 -24 -350 1 0 0 0 1 0 0 0 1 3070b.dat
0 STEP
1 72 70 -24 -350 1 0 0 0 1 0 0 0 1 3024.dat
1 72 70 -24 -370 1 0 0 0 1 0 0 0 1 3070b.dat
1 72 90 -24 -370 1 0 0 0 1 0 0 0 1 3024.dat
1 72 350 -24 -370 1 0 0 0 1 0 0 0 1 3024.dat
1 72 350 -24 -390 1 0 0 0 1 0 0 0 1 3070b.dat
1 72 370 -24 -350 1 0 0 0 1 0 0 0 1 3024.dat
1 72 390 -24 -330 1 0 0 0 1 0 0 0 1 3024.dat
1 72 390 -24 -350 1 0 0 0 1 0 0 0 1 3070b.dat
1 72 130 -24 -410 1 0 0 0 1 0 0 0 1 3070b.dat
1 72 220 -24 -410 1 0 0 0 1 0 0 0 1 3460.dat
1 72 220 -24 -430 1 0 0 0 1 0 0 0 1 6636.dat
0 STEP
1 71 170 -24 -10 1 0 0 0 1 0 0 0 1 3070b.dat
1 71 230 -24 -10 1 0 0 0 1 0 0 0 1 3070b.dat
1 71 250 -24 -10 1 0 0 0 1 0 0 0 1 3070b.dat
1 71 310 -24 -30 1 0 0 0 1 0 0 0 1 3070b.dat
1 71 390 -24 -120 0 0 1 0 1 0 -1 0 0 3023.dat
1 71 390 -24 -90 1 0 0 0 1 0 0 0 1 3070b.dat
1 71 10 -24 -190 0 0 1 0 1 0 -1 0 0 63864.dat
1 71 10 -24 -270 1 0 0 0 1 0 0 0 1 3070b.dat
1 71 30 -24 -280 0 0 1 0 1 0 -1 0 0 3023.dat
1 71 30 -24 -310 1 0 0 0 1 0 0 0 1 3070b.dat
1 71 410 -24 -280 0 0 1 0 1 0 -1 0 0 3023.dat
0 STEP
1 71 90 -24 -390 1 0 0 0 1 0 0 0 1 3070b.dat
1 71 120 -24 -390 1 0 0 0 1 0 0 0 1 3023.dat
1 71 320 -24 -390 1 0 0 0 1 0 0 0 1 3023.dat
1 71 370 -24 -370 1 0 0 0 1 0 0 0 1 3070b.dat
1 71 310 -24 -410 1 0 0 0 1 0 0 0 1 3070b.dat
1 19 220 -24 -60 0 0 1 0 1 0 -1 0 0 3020.dat
0 STEP
1 72 110 -32 -50 1 0 0 0 1 0 0 0 1 3070b.dat
1 72 140 -32 -50 1 0 0 0 1 0 0 0 1 3023.dat
1 72 150 -48 -70 1 0 0 0 1 0 0 0 1 3005.dat
1 72 150 -32 -30 1 0 0 0 1 0 0 0 1 3070b.dat
1 72 190 -32 -60 0 0 1 0 1 0 -1 0 0 3710.dat
1 72 270 -32 -40 0 0 1 0 1 0 -1 0 0 3023.dat
1 72 270 -32 -70 1 0 0 0 1 0 0 0 1 3024.dat
1 72 290 -48 -70 1 0 0 0 1 0 0 0 1 3005.dat
1 72 300 -32 -50 1 0 0 0 1 0 0 0 1 3023.dat
1 72 290 -32 -30 1 0 0 0 1 0 0 0 1 3070b.dat
1 72 330 -32 -70 1 0 0 0 1 0 0 0 1 3623.dat
1 72 330 -32 -50 1 0 0 0 1 0 0 0 1 3070b.dat
0 STEP
1 72 30 -32 -150 1 0 0 0 1 0 0 0 1 3070b.dat
1 72 50 -32 -200 0 0 1 0 1 0 -1 0 0 3460.dat
1 72 50 -32 -110 1 0 0 0 1 0 0 0 1 3070b.dat
1 72 140 -48 -160 1 0 0 0 1 0 0 0 1 3007.dat
1 72 70 -32 -130 1 0 0 0 1 0 0 0 1 3024.dat
1 72 160 -48 -130 1 0 0 0 1 0 0 0 1 3008.dat
1 72 140 -48 -100 1 0 0 0 1 0 0 0 1 3001.dat
1 72 190 -48 -110 1 0 0 0 1 0 0 0 1 3005.dat
1 72 280 -48 -160 1 0 0 0 1 0 0 0 1 2456.dat
1 72 280 -48 -120 1 0 0 0 1 0 0 0 1 3001.dat
1 72 250 -32 -90 1 0 0 0 1 0 0 0 1 3024.dat
1 72 290 -48 -90 1 0 0 0 1 0 0 0 1 3622.dat
0 STEP
1 72 330 -48 -120 0 0 1 0 1 0 -1 0 0 3004.dat
1 72 350 -48 -150 0 0 1 0 1 0 -1 0 0 3622.dat
1 72 360 -32 -110 1 0 0 0 1 0 0 0 1 3023.dat
1 72 410 -32 -150 1 0 0 0 1 0 0 0 1 3070b.dat
1 72 30 -32 -240 0 0 1 0 1 0 -1 0 0 3023.dat
1 72 140 -48 -200 1 0 0 0 1 0 0 0 1 3007.dat
1 72 140 -48 -240 1 0 0 0 1 0 0 0 1 3007.dat
1 72 300 -48 -200 1 0 0 0 1 0 0 0 1 3007.dat
1 72 300 -48 -240 1 0 0 0 1 0 0 0 1 3007.dat
1 72 370 -48 -170 1 0 0 0 1 0 0 0 1 3005.dat
1 72 410 -32 -170 1 0 0 0 1 0 0 0 1 3024.dat
1 72 410 -32 -240 0 0 1 0 1 0 -1 0 0 3710.dat
0 STEP
1 72 60 -32 -300 1 0 0 0 1 0 0 0 1 3022.dat
1 72 140 -48 -270 1 0 0 0 1 0 0 0 1 3008.dat
1 72 160 -48 -300 1 0 0 0 1 0 0 0 1 3007.dat
1 72 300 -48 -270 1 0 0 0 1 0 0 0 1 3008.dat
1 72 300 -48 -300 1 0 0 0 1 0 0 0 1 2456.dat
1 72 370 -48 -290 1 0 0 0 1 0 0 0 1 3005.dat
1 72 370 -32 -330 0 0 1 0 1 0 -1 0 0 3623.dat
1 72 50 -32 -330 1 0 0 0 1 0 0 0 1 3070b.dat
1 72 70 -32 -340 0 0 1 0 1 0 -1 0 0 3023.dat
1 72 160 -48 -330 1 0 0 0 1 0 0 0 1 3008.dat
1 72 200 -48 -350 1 0 0 0 1 0 0 0 1 3008.dat
1 72 130 -32 -380 0 0 1 0 1 0 -1 0 0 3023.dat
0 STEP
1 72 200 -48 -370 1 0 0 0 1 0 0 0 1 3009.dat
1 72 200 -32 -390 1 0 0 0 1 0 0 0 1 3666.dat
1 72 300 -48 -330 1 0 0 0 1 0 0 0 1 3009.dat
1 72 270 -48 -370 1 0 0 0 1 0 0 0 1 3005.dat
1 72 270 -32 -400 0 0 1 0 1 0 -1 0 0 3023.dat
1 72 300 -48 -350 1 0 0 0 1 0 0 0 1 3004.dat
1 72 340 -32 -360 1 0 0 0 1 0 0 0 1 3022.dat
1 72 390 -32 -330 1 0 0 0 1 0 0 0 1 3070b.dat
1 72 200 -32 -410 1 0 0 0 1 0 0 0 1 3023.dat
1 72 290 -32 -410 1 0 0 0 1 0 0 0 1 3070b.dat
1 71 110 -32 -70 1 0 0 0 1 0 0 0 1 3623.dat
1 71 170 -32 -50 0 0 1 0 1 0 -1 0 0 3623.dat
0 STEP
1 71 250 -32 -50 0 0 1 0 1 0 -1 0 0 3623.dat
1 71 80 -32 -100 1 0 0 0 1 0 0 0 1 3022.dat
1 71 350 -32 -90 1 0 0 0 1 0 0 0 1 3623.dat
1 71 380 -32 -140 1 0 0 0 1 0 0 0 1 3022.dat
1 71 390 -32 -110 1 0 0 0 1 0 0 0 1 3070b.dat
1 71 30 -32 -190 0 0 1 0 1 0 -1 0 0 3623.dat
1 71 390 -32 -240 0 0 1 0 1 0 -1 0 0 3460.dat
1 71 410 -32 -190 1 0 0 0 1 0 0 0 1 3024.dat
1 71 30 -32 -270 1 0 0 0 1 0 0 0 1 3024.dat
1 71 30 -32 -290 1 0 0 0 1 0 0 0 1 3070b.dat
1 71 410 -32 -290 1 0 0 0 1 0 0 0 1 3070b.dat
1 71 100 -32 -360 1 0 0 0 1 0 0 0 1 3022.dat
0 STEP
1 71 110 -32 -390 1 0 0 0 1 0 0 0 1 3070b.dat
1 71 300 -32 -380 1 0 0 0 1 0 0 0 1 3022.dat
1 71 330 -32 -390 1 0 0 0 1 0 0 0 1 3070b.dat
1 71 150 -32 -410 1 0 0 0 1 0 0 0 1 3070b.dat
1 71 170 -32 -410 1 0 0 0 1 0 0 0 1 3024.dat
1 71 240 -32 -410 1 0 0 0 1 0 0 0 1 3023.dat
1 19 220 -32 -80 0 0 1 0 1 0 -1 0 0 3020.dat
0 STEP
1 72 120 -40 -70 1 0 0 0 1 0 0 0 1 3023.dat
1 72 160 -40 -50 1 0 0 0 1 0 0 0 1 3710.dat
1 72 190 -40 -30 1 0 0 0 1 0 0 0 1 3024.dat
1 72 280 -40 -50 1 0 0 0 1 0 0 0 1 3710.dat
1 72 270 -40 -30 1 0 0 0 1 0 0 0 1 3070b.dat
1 72 350 -40 -70 1 0 0 0 1 0 0 0 1 3070b.dat
1 72 60 -40 -130 1 0 0 0 1 0 0 0 1 3023.dat
1 72 50 -40 -160 0 0 1 0 1 0 -1 0 0 3023.dat
1 72 90 -40 -90 1 0 0 0 1 0 0 0 1 3024.dat
1 72 220 -40 -90 1 0 0 0 1 0 0 0 1 3710.dat
1 72 220 -40 -110 1 0 0 0 1 0 0 0 1 3023.dat
0 STEP
1 72 340 -40 -90 1 0 0 0 1 0 0 0 1 3023.dat
1 72 350 -40 -110 1 0 0 0 1 0 0 0 1 3024.dat
1 72 40 -40 -240 1 0 0 0 1 0 0 0 1 3022.dat
1 72 410 -40 -240 0 0 1 0 1 0 -1 0 0 3023.dat
1 72 410 -40 -170 1 0 0 0 1 0 0 0 1 3070b.dat
1 72 60 -40 -310 1 0 0 0 1 0 0 0 1 3023.dat
1 72 70 -40 -290 1 0 0 0 1 0 0 0 1 3024.dat
1 72 410 -40 -270 1 0 0 0 1 0 0 0 1 3070b.dat
1 72 70 -40 -330 1 0 0 0 1 0 0 0 1 3024.dat
1 72 70 -40 -350 1 0 0 0 1 0 0 0 1 3070b.dat
1 72 100 -40 -350 1 0 0 0 1 0 0 0 1 3023.dat
0 STEP
1 72 130 -40 -390 1 0 0 0 1 0 0 0 1 3024.dat
1 72 340 -40 -350 1 0 0 0 1 0 0 0 1 3023.dat
1 72 350 -40 -370 1 0 0 0 1 0 0 0 1 3070b.dat
1 72 370 -40 -330 1 0 0 0 1 0 0 0 1 3024.dat
1 72 370 -40 -350 1 0 0 0 1 0 0 0 1 3070b.dat
1 72 190 -40 -410 1 0 0 0 1 0 0 0 1 3024.dat
1 72 210 -40 -410 1 0 0 0 1 0 0 0 1 3024.dat
1 72 270 -40 -410 1 0 0 0 1 0 0 0 1 3070b.dat
1 71 90 -40 -70 1 0 0 0 1 0 0 0 1 3070b.dat
1 71 170 -40 -30 1 0 0 0 1 0 0 0 1 3070b.dat
1 71 250 -40 -30 1 0 0 0 1 0 0 0 1 3024.dat
0 STEP
1 71 320 -40 -70 1 0 0 0 1 0 0 0 1 3023.dat
1 71 80 -40 -110 1 0 0 0 1 0 0 0 1 3023.dat
1 71 70 -40 -90 1 0 0 0 1 0 0 0 1 3070b.dat
1 71 370 -40 -130 0 0 1 0 1 0 -1 0 0 3623.dat
1 71 370 -40 -90 1 0 0 0 1 0 0 0 1 3070b.dat
1 71 390 -40 -200 0 0 1 0 1 0 -1 0 0 3460.dat
1 71 40 -40 -200 1 0 0 0 1 0 0 0 1 3022.dat
1 71 30 -40 -170 1 0 0 0 1 0 0 0 1 3070b.dat
1 71 410 -40 -200 0 0 1 0 1 0 -1 0 0 3023.dat
1 71 30 -40 -270 1 0 0 0 1 0 0 0 1 3070b.dat
1 71 50 -40 -280 0 0 1 0 1 0 -1 0 0 3023.dat
0 STEP
1 71 380 -40 -310 1 0 0 0 1 0 0 0 1 3023.dat
1 71 390 -40 -290 1 0 0 0 1 0 0 0 1 3024.dat
1 71 90 -40 -370 1 0 0 0 1 0 0 0 1 3070b.dat
1 71 120 -40 -370 1 0 0 0 1 0 0 0 1 3023.dat
1 71 220 -40 -390 1 0 0 0 1 0 0 0 1 3460.dat
1 71 310 -40 -370 1 0 0 0 1 0 0 0 1 3623.dat
1 71 310 -40 -390 1 0 0 0 1 0 0 0 1 3024.dat
1 71 170 -40 -410 1 0 0 0 1 0 0 0 1 3070b.dat
1 71 230 -40 -410 1 0 0 0 1 0 0 0 1 3024.dat
1 71 250 -40 -410 1 0 0 0 1 0 0 0 1 3024.dat
1 19 220 -40 -70 1 0 0 0 1 0 0 0 1 3666.dat
0 STEP
1 72 110 -48 -70 1 0 0 0 1 0 0 0 1 3024.dat
1 72 130 -48 -70 1 0 0 0 1 0 0 0 1 3024.dat
1 72 130 -48 -50 1 0 0 0 1 0 0 0 1 3070b.dat
1 72 170 -48 -50 1 0 0 0 1 0 0 0 1 3623.dat
1 72 180 -48 -70 1 0 0 0 1 0 0 0 1 3023.dat
1 72 190 -48 -30 1 0 0 0 1 0 0 0 1 3070b.dat
1 72 250 -48 -70 0 0 1 0 1 0 -1 0 0 3623.dat
1 72 250 -48 -30 1 0 0 0 1 0 0 0 1 3070b.dat
1 72 270 -48 -60 0 0 1 0 1 0 -1 0 0 3023.dat
1 72 290 -48 -50 1 0 0 0 1 0 0 0 1 3024.dat
1 72 310 -48 -70 1 0 0 0 1 0 0 0 1 3024.dat
1 72 310 -48 -50 1 0 0 0 1 0 0 0 1 3070b.dat
0 STEP
1 72 330 -48 -80 0 0 1 0 1 0 -1 0 0 3023.dat
1 72 50 -48 -220 0 0 1 0 1 0 -1 0 0 3460.dat
1 72 50 -48 -130 1 0 0 0 1 0 0 0 1 3070b.dat
1 72 70 -48 -120 0 0 1 0 1 0 -1 0 0 3023.dat
1 72 190 -48 -90 1 0 0 0 1 0 0 0 1 3024.dat
1 72 210 -48 -110 1 0 0 0 1 0 0 0 1 3024.dat
1 72 230 -48 -110 1 0 0 0 1 0 0 0 1 3024.dat
1 72 350 -48 -100 0 0 1 0 1 0 -1 0 0 3023.dat
1 72 370 -48 -120 0 0 1 0 1 0 -1 0 0 3023.dat
1 72 380 -48 -150 1 0 0 0 1 0 0 0 1 3023.dat
1 72 390 -48 -130 1 0 0 0 1 0 0 0 1 3070b.dat
1 72 30 -48 -240 0 0 1 0 1 0 -1 0 0 3069b.dat
0 STEP
1 72 410 -48 -220 0 0 1 0 1 0 -1 0 0 2431.dat
1 72 50 -48 -310 1 0 0 0 1 0 0 0 1 3070b.dat
1 72 70 -48 -310 0 0 1 0 1 0 -1 0 0 3623.dat
1 72 370 -48 -320 0 0 1 0 1 0 -1 0 0 3023.dat
1 72 90 -48 -350 1 0 0 0 1 0 0 0 1 3024.dat
1 72 110 -48 -360 0 0 1 0 1 0 -1 0 0 3023.dat
1 72 130 -48 -370 1 0 0 0 1 0 0 0 1 3024.dat
1 72 130 -48 -390 1 0 0 0 1 0 0 0 1 3070b.dat
1 72 270 -48 -390 1 0 0 0 1 0 0 0 1 3024.dat
1 72 290 -48 -380 0 0 1 0 1 0 -1 0 0 3023.dat
1 72 310 -48 -370 1 0 0 0 1 0 0 0 1 3024.dat
1 72 330 -48 -360 0 0 1 0 1 0 -1 0 0 3023.dat
0 STEP
1 72 350 -48 -350 1 0 0 0 1 0 0 0 1 3024.dat
1 72 220 -48 -410 1 0 0 0 1 0 0 0 1 2431.dat
1 71 90 -48 -100 0 0 1 0 1 0 -1 0 0 3023.dat
1 71 30 -48 -200 0 0 1 0 1 0 -1 0 0 3069b.dat
1 71 390 -48 -220 0 0 1 0 1 0 -1 0 0 3666.dat
1 71 390 -48 -290 1 0 0 0 1 0 0 0 1 3024.dat
1 71 390 -48 -310 1 0 0 0 1 0 0 0 1 3070b.dat
1 71 200 -48 -390 1 0 0 0 1 0 0 0 1 3666.dat
1 71 310 -48 -390 1 0 0 0 1 0 0 0 1 3070b.dat
1 19 220 -48 -90 1 0 0 0 1 0 0 0 1 3069b.dat
0 STEP
1 72 110 -56 -70 1 0 0 0 1 0 0 0 1 3070b.dat
1 72 140 -56 -70 1 0 0 0 1 0 0 0 1 3023.dat
1 72 150 -56 -50 1 0 0 0 1 0 0 0 1 3070b.dat
1 72 180 -56 -80 0 0 1 0 1 0 -1 0 0 3020.dat
1 72 260 -56 -60 1 0 0 0 1 0 0 0 1 3022.dat
1 72 290 -56 -50 1 0 0 0 1 0 0 0 1 3070b.dat
1 72 330 -56 -70 1 0 0 0 1 0 0 0 1 3070b.dat
1 72 50 -56 -150 1 0 0 0 1 0 0 0 1 3070b.dat
1 72 70 -56 -200 0 0 1 0 1 0 -1 0 0 3460.dat
1 72 70 -56 -110 1 0 0 0 1 0 0 0 1 3070b.dat
1 72 90 -72 -220 0 0 1 0 1 0 -1 0 0 3008.dat
0 STEP
1 72 100 -56 -110 1 0 0 0 1 0 0 0 1 3023.dat
1 72 90 -56 -130 1 0 0 0 1 0 0 0 1 3024.dat
1 72 110 -72 -200 0 0 1 0 1 0 -1 0 0 3008.dat
1 72 120 -56 -90 1 0 0 0 1 0 0 0 1 3023.dat
1 72 130 -72 -180 0 0 1 0 1 0 -1 0 0 3008.dat
1 72 150 -72 -160 0 0 1 0 1 0 -1 0 0 3008.dat
1 72 170 -72 -200 0 0 1 0 1 0 -1 0 0 3008.dat
1 72 200 -72 -220 0 0 1 0 1 0 -1 0 0 3007.dat
1 72 210 -56 -130 1 0 0 0 1 0 0 0 1 3623.dat
1 72 230 -72 -220 0 0 1 0 1 0 -1 0 0 3008.dat
1 72 250 -72 -200 0 0 1 0 1 0 -1 0 0 3008.dat
0 STEP
1 72 280 -72 -160 0 0 1 0 1 0 -1 0 0 3007.dat
1 72 310 -72 -180 0 0 1 0 1 0 -1 0 0 3008.dat
1 72 320 -56 -90 1 0 0 0 1 0 0 0 1 3023.dat
1 72 330 -72 -200 0 0 1 0 1 0 -1 0 0 3008.dat
1 72 340 -56 -110 1 0 0 0 1 0 0 0 1 3023.dat
1 72 350 -72 -220 0 0 1 0 1 0 -1 0 0 3008.dat
1 72 360 -56 -130 1 0 0 0 1 0 0 0 1 3023.dat
1 72 350 -56 -90 1 0 0 0 1 0 0 0 1 3070b.dat
1 72 370 -56 -220 0 0 1 0 1 0 -1 0 0 3460.dat
1 72 390 -56 -150 1 0 0 0 1 0 0 0 1 3070b.dat
1 72 50 -56 -220 0 0 1 0 1 0 -1 0 0 3666.dat
0 STEP
1 72 390 -56 -240 0 0 1 0 1 0 -1 0 0 3023.dat
1 72 50 -56 -290 1 0 0 0 1 0 0 0 1 3070b.dat
1 72 70 -56 -300 0 0 1 0 1 0 -1 0 0 3023.dat
1 72 90 -56 -320 0 0 1 0 1 0 -1 0 0 3023.dat
1 72 110 -72 -300 0 0 1 0 1 0 -1 0 0 3004.dat
1 72 130 -72 -300 0 0 1 0 1 0 -1 0 0 3010.dat
1 72 150 -72 -300 0 0 1 0 1 0 -1 0 0 3009.dat
1 72 170 -72 -320 0 0 1 0 1 0 -1 0 0 3010.dat
1 72 200 -72 -330 0 0 1 0 1 0 -1 0 0 3002.dat
1 72 230 -72 -330 0 0 1 0 1 0 -1 0 0 3622.dat
1 72 250 -72 -320 0 0 1 0 1 0 -1 0 0 3010.dat
0 STEP
1 72 280 -72 -300 0 0 1 0 1 0 -1 0 0 2456.dat
1 72 310 -72 -300 0 0 1 0 1 0 -1 0 0 3010.dat
1 72 330 -72 -300 0 0 1 0 1 0 -1 0 0 3004.dat
1 72 360 -56 -310 1 0 0 0 1 0 0 0 1 3023.dat
1 72 70 -56 -330 1 0 0 0 1 0 0 0 1 3070b.dat
1 72 90 -56 -350 1 0 0 0 1 0 0 0 1 3070b.dat
1 72 110 -56 -340 0 0 1 0 1 0 -1 0 0 3023.dat
1 72 110 -56 -370 1 0 0 0 1 0 0 0 1 3070b.dat
1 72 130 -56 -360 0 0 1 0 1 0 -1 0 0 3023.dat
1 72 220 -56 -370 1 0 0 0 1 0 0 0 1 3460.dat
1 72 200 -56 -390 1 0 0 0 1 0 0 0 1 3023.dat
0 STEP
1 72 270 -56 -390 1 0 0 0 1 0 0 0 1 3024.dat
1 72 290 -56 -390 1 0 0 0 1 0 0 0 1 3070b.dat
1 72 330 -56 -340 0 0 1 0 1 0 -1 0 0 3023.dat
1 72 350 -56 -330 1 0 0 0 1 0 0 0 1 3024.dat
1 72 350 -56 -350 1 0 0 0 1 0 0 0 1 3070b.dat
1 72 370 -56 -330 1 0 0 0 1 0 0 0 1 3070b.dat
1 71 300 -56 -70 1 0 0 0 1 0 0 0 1 3023.dat
1 71 90 -56 -90 1 0 0 0 1 0 0 0 1 3070b.dat
1 71 250 -56 -100 0 0 1 0 1 0 -1 0 0 3023.dat
1 71 370 -56 -110 1 0 0 0 1 0 0 0 1 3070b.dat
1 71 390 -56 -190 0 0 1 0 1 0 -1 0 0 3623.dat
0 STEP
1 71 390 -56 -270 1 0 0 0 1 0 0 0 1 3024.dat
1 71 390 -56 -290 1 0 0 0 1 0 0 0 1 3070b.dat
1 71 150 -56 -390 1 0 0 0 1 0 0 0 1 3070b.dat
1 71 170 -56 -390 1 0 0 0 1 0 0 0 1 3024.dat
1 71 240 -56 -390 1 0 0 0 1 0 0 0 1 3023.dat
1 71 310 -56 -360 0 0 1 0 1 0 -1 0 0 3023.dat
1 71 330 -56 -370 1 0 0 0 1 0 0 0 1 3070b.dat
1 19 220 -56 -110 1 0 0 0 1 0 0 0 1 3069b.dat
0 STEP
1 72 130 -64 -70 1 0 0 0 1 0 0 0 1 3070b.dat
1 72 170 -64 -70 1 0 0 0 1 0 0 0 1 3623.dat
1 72 170 -64 -50 1 0 0 0 1 0 0 0 1 3070b.dat
1 72 190 -64 -50 1 0 0 0 1 0 0 0 1 3024.dat
1 72 250 -64 -50 1 0 0 0 1 0 0 0 1 3024.dat
1 72 280 -64 -70 1 0 0 0 1 0 0 0 1 3023.dat
1 72 270 -64 -50 1 0 0 0 1 0 0 0 1 3070b.dat
1 72 70 -64 -160 0 0 1 0 1 0 -1 0 0 3023.dat
1 72 70 -64 -130 1 0 0 0 1 0 0 0 1 3070b.dat
1 72 130 -64 -90 1 0 0 0 1 0 0 0 1 3024.dat
1 72 170 -64 -100 0 0 1 0 1 0 -1 0 0 3023.dat
0 STEP
1 72 190 -64 -120 0 0 1 0 1 0 -1 0 0 3023.dat
1 72 220 -64 -130 1 0 0 0 1 0 0 0 1 3023.dat
1 72 310 -64 -90 1 0 0 0 1 0 0 0 1 3024.dat
1 72 350 -64 -120 0 0 1 0 1 0 -1 0 0 3023.dat
1 72 370 -64 -200 0 0 1 0 1 0 -1 0 0 3666.dat
1 72 370 -64 -130 1 0 0 0 1 0 0 0 1 3070b.dat
1 72 60 -64 -220 0 0 1 0 1 0 -1 0 0 3020.dat
1 72 50 -64 -170 1 0 0 0 1 0 0 0 1 3070b.dat
1 72 390 -64 -230 1 0 0 0 1 0 0 0 1 3024.dat
1 72 50 -64 -270 1 0 0 0 1 0 0 0 1 3070b.dat
1 72 70 -64 -310 1 0 0 0 1 0 0 0 1 3070b.dat
0 STEP
1 72 90 -64 -310 1 0 0 0 1 0 0 0 1 3024.dat
1 72 350 -64 -310 1 0 0 0 1 0 0 0 1 3024.dat
1 72 370 -64 -310 1 0 0 0 1 0 0 0 1 3070b.dat
1 72 390 -64 -250 1 0 0 0 1 0 0 0 1 3024.dat
1 72 100 -64 -330 1 0 0 0 1 0 0 0 1 3023.dat
1 72 120 -64 -350 1 0 0 0 1 0 0 0 1 3023.dat
1 72 130 -64 -370 1 0 0 0 1 0 0 0 1 3070b.dat
1 72 210 -64 -390 1 0 0 0 1 0 0 0 1 3024.dat
1 72 280 -64 -370 1 0 0 0 1 0 0 0 1 3023.dat
1 72 270 -64 -390 1 0 0 0 1 0 0 0 1 3070b.dat
1 72 320 -64 -350 1 0 0 0 1 0 0 0 1 3023.dat
0 STEP
1 72 340 -64 -330 1 0 0 0 1 0 0 0 1 3023.dat
1 71 250 -64 -90 0 0 1 0 1 0 -1 0 0 3623.dat
1 71 310 -64 -70 1 0 0 0 1 0 0 0 1 3070b.dat
1 71 90 -64 -120 0 0 1 0 1 0 -1 0 0 3023.dat
1 71 110 -64 -100 0 0 1 0 1 0 -1 0 0 3023.dat
1 71 190 -64 -90 1 0 0 0 1 0 0 0 1 3024.dat
1 71 330 -64 -100 0 0 1 0 1 0 -1 0 0 3023.dat
1 71 390 -64 -200 0 0 1 0 1 0 -1 0 0 3023.dat
1 71 390 -64 -170 1 0 0 0 1 0 0 0 1 3070b.dat
1 71 70 -64 -280 0 0 1 0 1 0 -1 0 0 3023.dat
1 71 370 -64 -280 0 0 1 0 1 0 -1 0 0 3023.dat
0 STEP
1 71 390 -64 -270 1 0 0 0 1 0 0 0 1 3070b.dat
1 71 200 -64 -370 1 0 0 0 1 0 0 0 1 3666.dat
1 71 170 -64 -390 1 0 0 0 1 0 0 0 1 3070b.dat
1 71 190 -64 -390 1 0 0 0 1 0 0 0 1 3024.dat
1 71 230 -64 -390 1 0 0 0 1 0 0 0 1 3024.dat
1 71 250 -64 -390 1 0 0 0 1 0 0 0 1 3024.dat
1 71 310 -64 -370 1 0 0 0 1 0 0 0 1 3070b.dat
0 STEP
1 72 150 -72 -70 1 0 0 0 1 0 0 0 1 3024.dat
1 72 190 -72 -70 1 0 0 0 1 0 0 0 1 3024.dat
1 72 190 -72 -50 1 0 0 0 1 0 0 0 1 3070b.dat
1 72 250 -72 -50 1 0 0 0 1 0 0 0 1 3070b.dat
1 72 270 -72 -70 1 0 0 0 1 0 0 0 1 3024.dat
1 72 290 -72 -70 1 0 0 0 1 0 0 0 1 3024.dat
1 72 70 -72 -200 0 0 1 0 1 0 -1 0 0 3666.dat
1 72 110 -72 -110 1 0 0 0 1 0 0 0 1 3024.dat
1 72 130 -72 -90 1 0 0 0 1 0 0 0 1 3024.dat
1 72 210 -72 -130 1 0 0 0 1 0 0 0 1 3024.dat
1 72 230 -72 -130 1 0 0 0 1 0 0 0 1 3024.dat
1 72 330 -72 -110 1 0 0 0 1 0 0 0 1 3024.dat
0 STEP
1 72 350 -72 -130 1 0 0 0 1 0 0 0 1 3024.dat
1 72 350 -72 -110 1 0 0 0 1 0 0 0 1 3070b.dat
1 72 370 -72 -180 0 0 1 0 1 0 -1 0 0 3710.dat
1 72 50 -72 -220 0 0 1 0 1 0 -1 0 0 2431.dat
1 72 70 -72 -270 1 0 0 0 1 0 0 0 1 3024.dat
1 72 350 -72 -310 1 0 0 0 1 0 0 0 1 3024.dat
1 72 390 -72 -250 1 0 0 0 1 0 0 0 1 3070b.dat
1 72 90 -72 -330 1 0 0 0 1 0 0 0 1 3070b.dat
1 72 110 -72 -330 1 0 0 0 1 0 0 0 1 3024.dat
1 72 110 -72 -350 1 0 0 0 1 0 0 0 1 3070b.dat
1 72 130 -72 -350 1 0 0 0 1 0 0 0 1 3024.dat
1 72 210 -72 -390 1 0 0 0 1 0 0 0 1 3070b.dat
0 STEP
1 72 260 -72 -370 1 0 0 0 1 0 0 0 1 3710.dat
1 72 330 -72 -330 1 0 0 0 1 0 0 0 1 3024.dat
1 72 330 -72 -350 1 0 0 0 1 0 0 0 1 3070b.dat
1 72 350 -72 -330 1 0 0 0 1 0 0 0 1 3070b.dat
1 71 170 -72 -90 0 0 1 0 1 0 -1 0 0 3623.dat
1 71 250 -72 -80 0 0 1 0 1 0 -1 0 0 3023.dat
1 71 90 -72 -130 1 0 0 0 1 0 0 0 1 3024.dat
1 71 90 -72 -110 1 0 0 0 1 0 0 0 1 3070b.dat
1 71 110 -72 -90 1 0 0 0 1 0 0 0 1 3070b.dat
1 71 190 -72 -110 0 0 1 0 1 0 -1 0 0 3623.dat
1 71 250 -72 -110 1 0 0 0 1 0 0 0 1 3024.dat
1 71 310 -72 -90 1 0 0 0 1 0 0 0 1 3024.dat
0 STEP
1 71 330 -72 -90 1 0 0 0 1 0 0 0 1 3070b.dat
1 71 370 -72 -260 0 0 1 0 1 0 -1 0 0 3710.dat
1 71 390 -72 -210 0 0 1 0 1 0 -1 0 0 63864.dat
1 71 70 -72 -290 1 0 0 0 1 0 0 0 1 3024.dat
1 71 90 -72 -310 1 0 0 0 1 0 0 0 1 3024.dat
1 71 180 -72 -370 1 0 0 0 1 0 0 0 1 3710.dat
1 71 190 -72 -390 1 0 0 0 1 0 0 0 1 3070b.dat
1 71 240 -72 -390 1 0 0 0 1 0 0 0 1 3069b.dat
1 71 310 -72 -350 1 0 0 0 1 0 0 0 1 3024.dat
0 STEP
1 72 190 -80 -70 1 0 0 0 1 0 0 0 1 3024.dat
1 72 270 -80 -80 0 0 1 0 1 0 -1 0 0 3023.dat
1 72 290 -80 -70 1 0 0 0 1 0 0 0 1 3070b.dat
1 72 70 -80 -150 1 0 0 0 1 0 0 0 1 3070b.dat
1 72 150 -96 -140 1 0 0 0 1 0 0 0 1 3002.dat
1 72 140 -80 -100 1 0 0 0 1 0 0 0 1 3022.dat
1 72 170 -80 -110 1 0 0 0 1 0 0 0 1 3024.dat
1 72 190 -96 -150 1 0 0 0 1 0 0 0 1 3005.dat
1 72 200 -80 -130 1 0 0 0 1 0 0 0 1 3023.dat
1 72 220 -80 -150 1 0 0 0 1 0 0 0 1 3023.dat
1 72 280 -96 -150 1 0 0 0 1 0 0 0 1 3010.dat
0 STEP
1 72 290 -96 -130 1 0 0 0 1 0 0 0 1 3622.dat
1 72 350 -80 -200 0 0 1 0 1 0 -1 0 0 3460.dat
1 72 370 -80 -150 1 0 0 0 1 0 0 0 1 3070b.dat
1 72 70 -80 -170 1 0 0 0 1 0 0 0 1 3024.dat
1 72 70 -80 -250 0 0 1 0 1 0 -1 0 0 3623.dat
1 72 180 -96 -180 1 0 0 0 1 0 0 0 1 3007.dat
1 72 180 -96 -220 1 0 0 0 1 0 0 0 1 3007.dat
1 72 280 -96 -220 0 0 1 0 1 0 -1 0 0 2456.dat
1 72 320 -96 -220 0 0 1 0 1 0 -1 0 0 2456.dat
1 72 370 -80 -240 0 0 1 0 1 0 -1 0 0 3023.dat
1 72 180 -96 -260 1 0 0 0 1 0 0 0 1 3007.dat
0 STEP
1 72 200 -96 -300 1 0 0 0 1 0 0 0 1 3007.dat
1 72 300 -96 -300 1 0 0 0 1 0 0 0 1 3003.dat
1 72 340 -80 -300 1 0 0 0 1 0 0 0 1 3022.dat
1 72 130 -80 -330 1 0 0 0 1 0 0 0 1 3623.dat
1 72 200 -80 -350 1 0 0 0 1 0 0 0 1 3460.dat
1 72 220 -96 -330 1 0 0 0 1 0 0 0 1 3009.dat
1 72 210 -80 -370 1 0 0 0 1 0 0 0 1 3024.dat
1 72 270 -80 -370 1 0 0 0 1 0 0 0 1 3024.dat
1 72 330 -80 -330 1 0 0 0 1 0 0 0 1 3024.dat
1 71 150 -80 -70 1 0 0 0 1 0 0 0 1 3070b.dat
1 71 170 -80 -80 0 0 1 0 1 0 -1 0 0 3023.dat
0 STEP
1 71 250 -80 -70 1 0 0 0 1 0 0 0 1 3024.dat
1 71 90 -80 -200 0 0 1 0 1 0 -1 0 0 3460.dat
1 71 110 -80 -130 0 0 1 0 1 0 -1 0 0 3623.dat
1 71 190 -80 -100 0 0 1 0 1 0 -1 0 0 3023.dat
1 71 240 -80 -130 1 0 0 0 1 0 0 0 1 3023.dat
1 71 260 -96 -110 1 0 0 0 1 0 0 0 1 3004.dat
1 71 250 -80 -90 1 0 0 0 1 0 0 0 1 3024.dat
1 71 300 -80 -100 1 0 0 0 1 0 0 0 1 3022.dat
1 71 330 -80 -130 0 0 1 0 1 0 -1 0 0 3623.dat
1 71 70 -80 -200 0 0 1 0 1 0 -1 0 0 3023.dat
1 71 370 -80 -190 0 0 1 0 1 0 -1 0 0 3623.dat
0 STEP
1 71 70 -80 -290 1 0 0 0 1 0 0 0 1 3070b.dat
1 71 100 -80 -300 1 0 0 0 1 0 0 0 1 3022.dat
1 71 370 -80 -270 1 0 0 0 1 0 0 0 1 3024.dat
1 71 370 -80 -290 1 0 0 0 1 0 0 0 1 3070b.dat
1 71 150 -80 -370 1 0 0 0 1 0 0 0 1 3070b.dat
1 71 180 -80 -370 1 0 0 0 1 0 0 0 1 3023.dat
1 71 240 -80 -370 1 0 0 0 1 0 0 0 1 3023.dat
1 71 300 -80 -340 1 0 0 0 1 0 0 0 1 3022.dat
1 71 290 -80 -370 1 0 0 0 1 0 0 0 1 3070b.dat
0 STEP
1 72 170 -88 -70 1 0 0 0 1 0 0 0 1 3070b.dat
1 72 190 -88 -80 0 0 1 0 1 0 -1 0 0 3023.dat
1 72 250 -88 -70 1 0 0 0 1 0 0 0 1 3024.dat
1 72 270 -88 -70 1 0 0 0 1 0 0 0 1 3070b.dat
1 72 100 -88 -150 1 0 0 0 1 0 0 0 1 3023.dat
1 72 90 -88 -130 1 0 0 0 1 0 0 0 1 3070b.dat
1 72 110 -88 -130 1 0 0 0 1 0 0 0 1 3024.dat
1 72 110 -88 -110 1 0 0 0 1 0 0 0 1 3070b.dat
1 72 160 -88 -110 1 0 0 0 1 0 0 0 1 3710.dat
1 72 130 -88 -90 1 0 0 0 1 0 0 0 1 3070b.dat
1 72 220 -88 -130 1 0 0 0 1 0 0 0 1 3710.dat
1 72 210 -88 -150 1 0 0 0 1 0 0 0 1 3024.dat
0 STEP
1 72 230 -88 -150 1 0 0 0 1 0 0 0 1 3024.dat
1 72 290 -88 -100 0 0 1 0 1 0 -1 0 0 3023.dat
1 72 310 -88 -110 1 0 0 0 1 0 0 0 1 3024.dat
1 72 330 -88 -140 0 0 1 0 1 0 -1 0 0 3023.dat
1 72 350 -88 -220 0 0 1 0 1 0 -1 0 0 3460.dat
1 72 350 -88 -130 1 0 0 0 1 0 0 0 1 3070b.dat
1 72 80 -88 -220 0 0 1 0 1 0 -1 0 0 3020.dat
1 72 70 -88 -170 1 0 0 0 1 0 0 0 1 3070b.dat
1 72 90 -88 -170 1 0 0 0 1 0 0 0 1 3024.dat
1 72 370 -88 -230 0 0 1 0 1 0 -1 0 0 3623.dat
1 72 370 -88 -170 1 0 0 0 1 0 0 0 1 3070b.dat
1 72 70 -88 -270 1 0 0 0 1 0 0 0 1 3070b.dat
0 STEP
1 72 110 -88 -300 0 0 1 0 1 0 -1 0 0 3023.dat
1 72 330 -88 -300 0 0 1 0 1 0 -1 0 0 3023.dat
1 72 350 -88 -310 1 0 0 0 1 0 0 0 1 3070b.dat
1 72 370 -88 -270 1 0 0 0 1 0 0 0 1 3070b.dat
1 72 110 -88 -330 1 0 0 0 1 0 0 0 1 3070b.dat
1 72 140 -88 -330 1 0 0 0 1 0 0 0 1 3023.dat
1 72 130 -88 -350 1 0 0 0 1 0 0 0 1 3070b.dat
1 72 220 -88 -350 1 0 0 0 1 0 0 0 1 3460.dat
1 72 200 -88 -370 1 0 0 0 1 0 0 0 1 3023.dat
1 72 270 -88 -370 1 0 0 0 1 0 0 0 1 3070b.dat
1 72 300 -88 -330 1 0 0 0 1 0 0 0 1 3023.dat
1 72 310 -88 -350 1 0 0 0 1 0 0 0 1 3070b.dat
0 STEP
1 72 330 -88 -330 1 0 0 0 1 0 0 0 1 3070b.dat
1 71 160 -88 -90 1 0 0 0 1 0 0 0 1 3023.dat
1 71 260 -88 -90 1 0 0 0 1 0 0 0 1 3023.dat
1 71 310 -88 -90 1 0 0 0 1 0 0 0 1 3070b.dat
1 71 330 -88 -110 1 0 0 0 1 0 0 0 1 3070b.dat
1 71 370 -88 -190 1 0 0 0 1 0 0 0 1 3024.dat
1 71 90 -88 -280 0 0 1 0 1 0 -1 0 0 3023.dat
1 71 90 -88 -310 1 0 0 0 1 0 0 0 1 3070b.dat
1 71 170 -88 -370 1 0 0 0 1 0 0 0 1 3070b.dat
1 71 230 -88 -370 1 0 0 0 1 0 0 0 1 3024.dat
1 71 250 -88 -370 1 0 0 0 1 0 0 0 1 3024.dat
0 STEP
1 72 190 -96 -70 1 0 0 0 1 0 0 0 1 3070b.dat
1 72 250 -96 -70 1 0 0 0 1 0 0 0 1 3070b.dat
1 72 90 -96 -150 1 0 0 0 1 0 0 0 1 3070b.dat
1 72 110 -96 -140 0 0 1 0 1 0 -1 0 0 3023.dat
1 72 140 -96 -110 1 0 0 0 1 0 0 0 1 3023.dat
1 72 190 -96 -110 0 0 1 0 1 0 -1 0 0 3623.dat
1 72 220 -96 -150 1 0 0 0 1 0 0 0 1 3023.dat
1 72 220 -96 -130 1 0 0 0 1 0 0 0 1 3069b.dat
1 72 250 -96 -130 1 0 0 0 1 0 0 0 1 3024.dat
1 72 270 -96 -90 1 0 0 0 1 0 0 0 1 3024.dat
1 72 290 -96 -90 1 0 0 0 1 0 0 0 1 3070b.dat
0 STEP
1 72 330 -96 -130 1 0 0 0 1 0 0 0 1 3024.dat
1 72 330 -96 -150 1 0 0 0 1 0 0 0 1 3024.dat
1 72 350 -96 -150 1 0 0 0 1 0 0 0 1 3070b.dat
1 72 70 -96 -230 0 0 1 0 1 0 -1 0 0 63864.dat
1 72 350 -96 -220 0 0 1 0 1 0 -1 0 0 3666.dat
1 72 370 -96 -220 0 0 1 0 1 0 -1 0 0 3069b.dat
1 72 110 -96 -290 1 0 0 0 1 0 0 0 1 3024.dat
1 72 110 -96 -310 1 0 0 0 1 0 0 0 1 3024.dat
1 72 330 -96 -290 1 0 0 0 1 0 0 0 1 3024.dat
1 72 330 -96 -310 1 0 0 0 1 0 0 0 1 3024.dat
1 72 350 -96 -290 1 0 0 0 1 0 0 0 1 3070b.dat
0 STEP
1 72 370 -96 -250 1 0 0 0 1 0 0 0 1 3070b.dat
1 72 130 -96 -330 1 0 0 0 1 0 0 0 1 3024.dat
1 72 150 -96 -330 1 0 0 0 1 0 0 0 1 3024.dat
1 72 150 -96 -350 1 0 0 0 1 0 0 0 1 3070b.dat
1 72 220 -96 -350 1 0 0 0 1 0 0 0 1 3666.dat
1 72 190 -96 -370 1 0 0 0 1 0 0 0 1 3070b.dat
1 72 210 -96 -370 1 0 0 0 1 0 0 0 1 3070b.dat
1 72 290 -96 -330 1 0 0 0 1 0 0 0 1 3024.dat
1 72 290 -96 -350 1 0 0 0 1 0 0 0 1 3070b.dat
1 72 310 -96 -330 1 0 0 0 1 0 0 0 1 3024.dat
1 71 150 -96 -90 1 0 0 0 1 0 0 0 1 3070b.dat
0 STEP
1 71 170 -96 -100 0 0 1 0 1 0 -1 0 0 3023.dat
1 71 250 -96 -90 1 0 0 0 1 0 0 0 1 3024.dat
1 71 300 -96 -110 1 0 0 0 1 0 0 0 1 3023.dat
1 71 70 -96 -190 1 0 0 0 1 0 0 0 1 3070b.dat
1 71 90 -96 -220 0 0 1 0 1 0 -1 0 0 3666.dat
1 71 370 -96 -190 1 0 0 0 1 0 0 0 1 3070b.dat
1 71 90 -96 -290 1 0 0 0 1 0 0 0 1 3070b.dat
1 71 240 -96 -370 1 0 0 0 1 0 0 0 1 3069b.dat
0 STEP
1 72 310 -104 -150 1 0 0 0 1 0 0 0 1 3024.dat
1 72 130 -120 -170 1 0 0 0 1 0 0 0 1 3005.dat
1 72 130 -120 -270 1 0 0 0 1 0 0 0 1 3005.dat
1 15 110 -104 -130 1 0 0 0 1 0 0 0 1 3024.dat
1 15 120 -104 -150 1 0 0 0 1 0 0 0 1 3023.dat
1 15 140 -104 -120 1 0 0 0 1 0 0 0 1 3022.dat
1 15 170 -120 -110 0 0 1 0 1 0 -1 0 0 3622.dat
1 15 220 -104 -100 1 0 0 0 1 0 0 0 1 3020.dat
1 15 270 -120 -110 0 0 1 0 1 0 -1 0 0 3622.dat
1 15 300 -104 -120 1 0 0 0 1 0 0 0 1 3022.dat
1 15 330 -104 -140 0 0 1 0 1 0 -1 0 0 3023.dat
1 15 100 -120 -220 0 0 1 0 1 0 -1 0 0 2456.dat
0 STEP
1 15 330 -120 -170 1 0 0 0 1 0 0 0 1 3622.dat
1 15 340 -120 -220 0 0 1 0 1 0 -1 0 0 3001.dat
1 15 120 -104 -300 1 0 0 0 1 0 0 0 1 3022.dat
1 15 150 -104 -320 0 0 1 0 1 0 -1 0 0 3023.dat
1 15 170 -120 -330 0 0 1 0 1 0 -1 0 0 3622.dat
1 15 270 -120 -330 0 0 1 0 1 0 -1 0 0 3622.dat
1 15 290 -104 -320 0 0 1 0 1 0 -1 0 0 3023.dat
1 15 330 -120 -270 1 0 0 0 1 0 0 0 1 3622.dat
1 15 320 -104 -300 1 0 0 0 1 0 0 0 1 3022.dat
1 15 130 -104 -330 1 0 0 0 1 0 0 0 1 3024.dat
1 15 220 -120 -340 1 0 0 0 1 0 0 0 1 3001.dat
1 15 310 -104 -330 1 0 0 0 1 0 0 0 1 3024.dat
0 STEP
1 72 150 -112 -130 1 0 0 0 1 0 0 0 1 3024.dat
1 15 120 -112 -140 1 0 0 0 1 0 0 0 1 3022.dat
1 15 140 -112 -110 1 0 0 0 1 0 0 0 1 3023.dat
1 15 210 -112 -100 1 0 0 0 1 0 0 0 1 3021.dat
1 15 250 -112 -100 0 0 1 0 1 0 -1 0 0 3023.dat
1 15 290 -112 -120 0 0 1 0 1 0 -1 0 0 3023.dat
1 15 310 -112 -130 0 0 1 0 1 0 -1 0 0 3623.dat
1 15 330 -112 -130 1 0 0 0 1 0 0 0 1 3024.dat
0 STEP
1 15 330 -112 -150 1 0 0 0 1 0 0 0 1 3024.dat
1 15 120 -112 -290 1 0 0 0 1 0 0 0 1 3023.dat
1 15 130 -112 -310 1 0 0 0 1 0 0 0 1 3623.dat
1 15 300 -112 -320 1 0 0 0 1 0 0 0 1 3022.dat
1 15 320 -112 -290 1 0 0 0 1 0 0 0 1 3023.dat
1 15 330 -112 -310 1 0 0 0 1 0 0 0 1 3024.dat
1 15 140 -112 -330 1 0 0 0 1 0 0 0 1 3023.dat
0 STEP
1 72 140 -120 -140 1 0 0 0 1 0 0 0 1 3022.dat
1 72 300 -120 -140 1 0 0 0 1 0 0 0 1 3022.dat
1 72 140 -120 -300 1 0 0 0 1 0 0 0 1 3022.dat
1 72 300 -120 -300 1 0 0 0 1 0 0 0 1 3022.dat
1 15 110 -120 -150 1 0 0 0 1 0 0 0 1 3024.dat
1 15 110 -120 -130 1 0 0 0 1 0 0 0 1 3070b.dat
1 15 130 -120 -110 1 0 0 0 1 0 0 0 1 3070b.dat
1 15 150 -120 -110 1 0 0 0 1 0 0 0 1 3024.dat
1 15 220 -120 -100 1 0 0 0 1 0 0 0 1 3020.dat
1 15 290 -120 -110 1 0 0 0 1 0 0 0 1 3024.dat
1 15 310 -120 -110 1 0 0 0 1 0 0 0 1 3070b.dat
0 STEP
1 15 330 -120 -150 1 0 0 0 1 0 0 0 1 3024.dat
1 15 330 -120 -130 1 0 0 0 1 0 0 0 1 3070b.dat
1 15 110 -120 -290 1 0 0 0 1 0 0 0 1 3024.dat
1 15 110 -120 -310 1 0 0 0 1 0 0 0 1 3070b.dat
1 15 330 -120 -290 1 0 0 0 1 0 0 0 1 3024.dat
1 15 330 -120 -310 1 0 0 0 1 0 0 0 1 3070b.dat
1 15 130 -120 -330 1 0 0 0 1 0 0 0 1 3070b.dat
1 15 150 -120 -330 1 0 0 0 1 0 0 0 1 3024.dat
1 15 290 -120 -330 1 0 0 0 1 0 0 0 1 3024.dat
1 15 310 -120 -330 1 0 0 0 1 0 0 0 1 3070b.dat
0 STEP
1 72 280 -144 -130 1 0 0 0 1 0 0 0 1 3004.dat
1 72 130 -144 -170 1 0 0 0 1 0 0 0 1 3005.dat
1 72 320 -144 -170 1 0 0 0 1 0 0 0 1 3004.dat
1 72 130 -144 -270 1 0 0 0 1 0 0 0 1 3005.dat
1 72 280 -144 -310 1 0 0 0 1 0 0 0 1 3004.dat
1 72 320 -144 -270 1 0 0 0 1 0 0 0 1 3004.dat
1 15 130 -144 -150 1 0 0 0 1 0 0 0 1 3622.dat
1 15 150 -144 -130 1 0 0 0 1 0 0 0 1 3622.dat
1 15 220 -144 -110 1 0 0 0 1 0 0 0 1 3008.dat
1 15 220 -144 -90 1 0 0 0 1 0 0 0 1 3009.dat
1 15 310 -144 -150 1 0 0 0 1 0 0 0 1 3622.dat
1 15 310 -144 -130 1 0 0 0 1 0 0 0 1 3005.dat
0 STEP
1 15 100 -144 -220 0 0 1 0 1 0 -1 0 0 2456.dat
1 15 340 -144 -210 0 0 1 0 1 0 -1 0 0 3002.dat
1 15 350 -144 -170 1 0 0 0 1 0 0 0 1 3005.dat
1 15 130 -144 -290 1 0 0 0 1 0 0 0 1 3622.dat
1 15 150 -144 -310 1 0 0 0 1 0 0 0 1 3622.dat
1 15 310 -144 -290 1 0 0 0 1 0 0 0 1 3622.dat
1 15 310 -144 -310 1 0 0 0 1 0 0 0 1 3005.dat
1 15 340 -144 -250 1 0 0 0 1 0 0 0 1 3004.dat
1 15 350 -144 -270 1 0 0 0 1 0 0 0 1 3005.dat
1 15 220 -144 -330 1 0 0 0 1 0 0 0 1 3008.dat
1 15 220 -144 -350 1 0 0 0 1 0 0 0 1 3009.dat
0 STEP
1 72 270 -152 -130 1 0 0 0 1 0 0 0 1 3024.dat
1 72 130 -152 -270 1 0 0 0 1 0 0 0 1 3024.dat
1 72 310 -152 -270 1 0 0 0 1 0 0 0 1 3024.dat
1 15 110 -168 -150 1 0 0 0 1 0 0 0 1 3005.dat
1 15 130 -168 -140 0 0 1 0 1 0 -1 0 0 3004.dat
1 15 150 -168 -130 0 0 1 0 1 0 -1 0 0 3622.dat
1 15 170 -152 -110 0 0 1 0 1 0 -1 0 0 3623.dat
1 15 190 -152 -100 0 0 1 0 1 0 -1 0 0 3023.dat
1 15 220 -168 -100 1 0 0 0 1 0 0 0 1 3003.dat
1 15 260 -152 -100 1 0 0 0 1 0 0 0 1 3022.dat
1 15 290 -168 -130 0 0 1 0 1 0 -1 0 0 3622.dat
0 STEP
1 15 310 -168 -140 0 0 1 0 1 0 -1 0 0 3004.dat
1 15 330 -168 -150 1 0 0 0 1 0 0 0 1 3005.dat
1 15 100 -168 -220 1 0 0 0 1 0 0 0 1 3003.dat
1 15 110 -152 -170 1 0 0 0 1 0 0 0 1 3623.dat
1 15 100 -152 -190 1 0 0 0 1 0 0 0 1 3023.dat
1 15 330 -152 -170 1 0 0 0 1 0 0 0 1 3623.dat
1 15 340 -168 -220 1 0 0 0 1 0 0 0 1 3003.dat
1 15 340 -152 -190 1 0 0 0 1 0 0 0 1 3023.dat
1 15 100 -152 -260 1 0 0 0 1 0 0 0 1 3022.dat
1 15 120 -168 -290 1 0 0 0 1 0 0 0 1 3004.dat
1 15 130 -168 -310 1 0 0 0 1 0 0 0 1 3005.dat
0 STEP
1 15 150 -168 -310 0 0 1 0 1 0 -1 0 0 3622.dat
1 15 170 -152 -330 0 0 1 0 1 0 -1 0 0 3623.dat
1 15 270 -152 -330 0 0 1 0 1 0 -1 0 0 3623.dat
1 15 300 -168 -300 1 0 0 0 1 0 0 0 1 3003.dat
1 15 330 -168 -290 1 0 0 0 1 0 0 0 1 3005.dat
1 15 340 -152 -260 1 0 0 0 1 0 0 0 1 3022.dat
1 15 190 -152 -340 0 0 1 0 1 0 -1 0 0 3023.dat
1 15 220 -168 -340 1 0 0 0 1 0 0 0 1 3003.dat
1 15 250 -152 -340 0 0 1 0 1 0 -1 0 0 3023.dat
1 15 290 -168 -330 1 0 0 0 1 0 0 0 1 3005.dat
0 STEP
1 72 180 -160 -110 1 0 0 0 1 0 0 0 1 3023.dat
1 72 170 -160 -130 1 0 0 0 1 0 0 0 1 3024.dat
1 72 270 -160 -120 0 0 1 0 1 0 -1 0 0 3023.dat
1 72 110 -160 -180 0 0 1 0 1 0 -1 0 0 3023.dat
1 72 130 -160 -170 1 0 0 0 1 0 0 0 1 3024.dat
1 72 320 -160 -170 1 0 0 0 1 0 0 0 1 3023.dat
1 72 330 -160 -190 1 0 0 0 1 0 0 0 1 3024.dat
1 72 120 -160 -270 1 0 0 0 1 0 0 0 1 3023.dat
1 72 170 -160 -320 0 0 1 0 1 0 -1 0 0 3023.dat
1 72 270 -160 -310 1 0 0 0 1 0 0 0 1 3024.dat
0 STEP
1 72 320 -160 -270 1 0 0 0 1 0 0 0 1 3023.dat
1 72 190 -160 -330 1 0 0 0 1 0 0 0 1 3024.dat
1 72 260 -160 -330 1 0 0 0 1 0 0 0 1 3023.dat
1 15 170 -160 -90 1 0 0 0 1 0 0 0 1 3070b.dat
1 15 190 -160 -90 1 0 0 0 1 0 0 0 1 3024.dat
1 15 250 -160 -100 0 0 1 0 1 0 -1 0 0 3023.dat
1 15 270 -160 -90 1 0 0 0 1 0 0 0 1 3070b.dat
1 15 90 -160 -190 1 0 0 0 1 0 0 0 1 3024.dat
1 15 90 -160 -170 1 0 0 0 1 0 0 0 1 3070b.dat
1 15 350 -160 -190 1 0 0 0 1 0 0 0 1 3024.dat
0 STEP
1 15 350 -160 -170 1 0 0 0 1 0 0 0 1 3070b.dat
1 15 100 -160 -250 1 0 0 0 1 0 0 0 1 3023.dat
1 15 90 -160 -270 1 0 0 0 1 0 0 0 1 3070b.dat
1 15 340 -160 -250 1 0 0 0 1 0 0 0 1 3023.dat
1 15 350 -160 -270 1 0 0 0 1 0 0 0 1 3070b.dat
1 15 170 -160 -350 1 0 0 0 1 0 0 0 1 3070b.dat
1 15 190 -160 -350 1 0 0 0 1 0 0 0 1 3024.dat
1 15 250 -160 -350 1 0 0 0 1 0 0 0 1 3024.dat
1 15 270 -160 -350 1 0 0 0 1 0 0 0 1 3070b.dat
0 STEP
1 72 310 -168 -170 1 0 0 0 1 0 0 0 1 3024.dat
1 15 180 -168 -120 1 0 0 0 1 0 0 0 1 3022.dat
1 15 190 -168 -90 1 0 0 0 1 0 0 0 1 3024.dat
1 15 260 -168 -120 1 0 0 0 1 0 0 0 1 3022.dat
1 15 250 -168 -90 1 0 0 0 1 0 0 0 1 3024.dat
1 15 110 -168 -190 1 0 0 0 1 0 0 0 1 3623.dat
1 15 120 -168 -170 1 0 0 0 1 0 0 0 1 3023.dat
1 15 330 -168 -190 1 0 0 0 1 0 0 0 1 3623.dat
1 15 330 -168 -170 1 0 0 0 1 0 0 0 1 3024.dat
0 STEP
1 15 90 -168 -250 1 0 0 0 1 0 0 0 1 3024.dat
1 15 120 -168 -260 1 0 0 0 1 0 0 0 1 3022.dat
1 15 180 -168 -320 1 0 0 0 1 0 0 0 1 3022.dat
1 15 260 -168 -320 1 0 0 0 1 0 0 0 1 3022.dat
1 15 320 -168 -260 1 0 0 0 1 0 0 0 1 3022.dat
1 15 350 -168 -250 1 0 0 0 1 0 0 0 1 3024.dat
1 15 190 -168 -350 1 0 0 0 1 0 0 0 1 3024.dat
1 15 250 -168 -350 1 0 0 0 1 0 0 0 1 3024.dat
0 STEP
1 72 150 -192 -150 1 0 0 0 1 0 0 0 1 3005.dat
1 72 130 -192 -190 1 0 0 0 1 0 0 0 1 3005.dat
1 72 330 -192 -220 0 0 1 0 1 0 -1 0 0 3004.dat
1 72 130 -192 -250 1 0 0 0 1 0 0 0 1 3005.dat
1 72 150 -192 -290 1 0 0 0 1 0 0 0 1 3005.dat
1 15 120 -192 -160 1 0 0 0 1 0 0 0 1 3003.dat
1 15 160 -192 -130 1 0 0 0 1 0 0 0 1 3010.dat
1 15 220 -192 -110 1 0 0 0 1 0 0 0 1 3008.dat
1 15 220 -192 -90 1 0 0 0 1 0 0 0 1 3010.dat
1 15 280 -192 -130 1 0 0 0 1 0 0 0 1 3010.dat
1 15 310 -192 -150 1 0 0 0 1 0 0 0 1 3622.dat
0 STEP
1 15 100 -192 -220 0 0 1 0 1 0 -1 0 0 3001.dat
1 15 320 -192 -180 1 0 0 0 1 0 0 0 1 3003.dat
1 15 350 -192 -210 0 0 1 0 1 0 -1 0 0 3622.dat
1 15 120 -192 -280 1 0 0 0 1 0 0 0 1 3003.dat
1 15 160 -192 -310 1 0 0 0 1 0 0 0 1 3010.dat
1 15 280 -192 -310 1 0 0 0 1 0 0 0 1 3010.dat
1 15 310 -192 -290 1 0 0 0 1 0 0 0 1 3622.dat
1 15 330 -192 -250 1 0 0 0 1 0 0 0 1 3622.dat
1 15 320 -192 -270 1 0 0 0 1 0 0 0 1 3004.dat
1 15 220 -192 -330 1 0 0 0 1 0 0 0 1 3008.dat
1 15 220 -192 -350 1 0 0 0 1 0 0 0 1 3010.dat
0 STEP
1 72 190 -216 -130 1 0 0 0 1 0 0 0 1 3005.dat
1 72 250 -216 -130 1 0 0 0 1 0 0 0 1 3005.dat
1 72 290 -216 -150 1 0 0 0 1 0 0 0 1 3005.dat
1 4 110 -216 -220 0 0 1 0 1 0 -1 0 0 3008.dat
1 4 130 -216 -160 0 0 1 0 1 0 -1 0 0 3010.dat
1 4 150 -216 -130 0 0 1 0 1 0 -1 0 0 3622.dat
1 4 170 -216 -120 0 0 1 0 1 0 -1 0 0 3004.dat
1 4 220 -216 -100 1 0 0 0 1 0 0 0 1 3001.dat
1 4 280 -216 -120 1 0 0 0 1 0 0 0 1 3003.dat
1 4 310 -216 -160 0 0 1 0 1 0 -1 0 0 3010.dat
1 4 330 -216 -220 0 0 1 0 1 0 -1 0 0 3008.dat
0 STEP
1 4 90 -216 -220 0 0 1 0 1 0 -1 0 0 3010.dat
1 4 350 -216 -220 0 0 1 0 1 0 -1 0 0 3010.dat
1 4 130 -216 -280 0 0 1 0 1 0 -1 0 0 3010.dat
1 4 150 -216 -310 0 0 1 0 1 0 -1 0 0 3622.dat
1 4 180 -216 -320 1 0 0 0 1 0 0 0 1 3003.dat
1 4 250 -216 -330 0 0 1 0 1 0 -1 0 0 3622.dat
1 4 270 -216 -320 0 0 1 0 1 0 -1 0 0 3004.dat
1 4 290 -216 -310 0 0 1 0 1 0 -1 0 0 3622.dat
1 4 310 -216 -280 0 0 1 0 1 0 -1 0 0 3010.dat
1 4 190 -216 -350 1 0 0 0 1 0 0 0 1 3005.dat
1 4 220 -216 -340 1 0 0 0 1 0 0 0 1 3003.dat
0 STEP
1 72 190 -224 -130 1 0 0 0 1 0 0 0 1 3024.dat
1 72 130 -224 -190 1 0 0 0 1 0 0 0 1 3024.dat
1 72 130 -224 -250 1 0 0 0 1 0 0 0 1 3024.dat
1 72 150 -240 -290 1 0 0 0 1 0 0 0 1 3005.dat
1 72 250 -224 -320 0 0 1 0 1 0 -1 0 0 3023.dat
1 72 310 -224 -250 1 0 0 0 1 0 0 0 1 3024.dat
1 72 220 -224 -330 1 0 0 0 1 0 0 0 1 3023.dat
1 4 130 -240 -150 1 0 0 0 1 0 0 0 1 3622.dat
1 4 150 -240 -130 1 0 0 0 1 0 0 0 1 3622.dat
1 4 160 -240 -110 1 0 0 0 1 0 0 0 1 3004.dat
0 STEP
1 4 210 -224 -100 1 0 0 0 1 0 0 0 1 3021.dat
1 4 250 -224 -110 0 0 1 0 1 0 -1 0 0 3623.dat
1 4 270 -240 -120 0 0 1 0 1 0 -1 0 0 3004.dat
1 4 290 -240 -130 0 0 1 0 1 0 -1 0 0 3622.dat
1 4 310 -240 -150 0 0 1 0 1 0 -1 0 0 3622.dat
1 4 330 -240 -160 0 0 1 0 1 0 -1 0 0 3004.dat
1 4 100 -224 -220 0 0 1 0 1 0 -1 0 0 3020.dat
1 4 120 -240 -170 1 0 0 0 1 0 0 0 1 3004.dat
1 4 330 -224 -190 1 0 0 0 1 0 0 0 1 3623.dat
1 4 340 -224 -230 0 0 1 0 1 0 -1 0 0 3021.dat
0 STEP
1 4 120 -240 -280 1 0 0 0 1 0 0 0 1 3003.dat
1 4 150 -240 -310 1 0 0 0 1 0 0 0 1 3622.dat
1 4 190 -224 -330 0 0 1 0 1 0 -1 0 0 3623.dat
1 4 290 -240 -310 1 0 0 0 1 0 0 0 1 3622.dat
1 4 310 -240 -290 1 0 0 0 1 0 0 0 1 3622.dat
1 4 320 -240 -270 1 0 0 0 1 0 0 0 1 3004.dat
1 4 160 -240 -330 1 0 0 0 1 0 0 0 1 3004.dat
1 4 230 -224 -350 1 0 0 0 1 0 0 0 1 3623.dat
1 4 280 -240 -330 1 0 0 0 1 0 0 0 1 3004.dat
0 STEP
1 72 220 -232 -120 1 0 0 0 1 0 0 0 1 3020.dat
1 72 120 -232 -220 0 0 1 0 1 0 -1 0 0 3020.dat
1 72 320 -232 -220 0 0 1 0 1 0 -1 0 0 3020.dat
1 72 220 -232 -320 1 0 0 0 1 0 0 0 1 3020.dat
1 4 190 -232 -90 1 0 0 0 1 0 0 0 1 3070b.dat
1 4 220 -232 -90 1 0 0 0 1 0 0 0 1 3023.dat
1 4 250 -232 -90 1 0 0 0 1 0 0 0 1 3070b.dat
1 4 90 -232 -220 0 0 1 0 1 0 -1 0 0 3023.dat
0 STEP
1 4 90 -232 -190 1 0 0 0 1 0 0 0 1 3070b.dat
1 4 350 -232 -220 0 0 1 0 1 0 -1 0 0 3023.dat
1 4 350 -232 -190 1 0 0 0 1 0 0 0 1 3070b.dat
1 4 90 -232 -250 1 0 0 0 1 0 0 0 1 3070b.dat
1 4 350 -232 -250 1 0 0 0 1 0 0 0 1 3070b.dat
1 4 190 -232 -350 1 0 0 0 1 0 0 0 1 3070b.dat
1 4 220 -232 -350 1 0 0 0 1 0 0 0 1 3023.dat
1 4 250 -232 -350 1 0 0 0 1 0 0 0 1 3070b.dat
0 STEP
1 4 190 -240 -120 0 0 1 0 1 0 -1 0 0 3023.dat
1 4 220 -240 -110 0 0 1 0 1 0 -1 0 0 3021.dat
1 4 250 -240 -120 0 0 1 0 1 0 -1 0 0 3023.dat
1 4 90 -240 -210 1 0 0 0 1 0 0 0 1 3024.dat
1 4 90 -240 -230 1 0 0 0 1 0 0 0 1 3024.dat
1 4 120 -240 -210 0 0 1 0 1 0 -1 0 0 3021.dat
1 4 320 -240 -210 0 0 1 0 1 0 -1 0 0 3021.dat
1 4 350 -240 -210 1 0 0 0 1 0 0 0 1 3024.dat
0 STEP
1 4 350 -240 -230 1 0 0 0 1 0 0 0 1 3024.dat
1 4 120 -240 -250 1 0 0 0 1 0 0 0 1 3023.dat
1 4 210 -240 -320 1 0 0 0 1 0 0 0 1 3021.dat
1 4 250 -240 -320 0 0 1 0 1 0 -1 0 0 3023.dat
1 4 320 -240 -250 1 0 0 0 1 0 0 0 1 3023.dat
1 4 210 -240 -350 1 0 0 0 1 0 0 0 1 3024.dat
1 4 230 -240 -350 1 0 0 0 1 0 0 0 1 3024.dat
0 STEP
1 272 220 -264 -350 1 0 0 0 1 0 0 0 1 3004.dat
1 72 150 -264 -150 1 0 0 0 1 0 0 0 1 3005.dat
1 72 220 -264 -130 1 0 0 0 1 0 0 0 1 3004.dat
1 72 290 -264 -150 1 0 0 0 1 0 0 0 1 3005.dat
1 4 110 -264 -220 0 0 1 0 1 0 -1 0 0 3008.dat
1 4 130 -264 -200 0 0 1 0 1 0 -1 0 0 3008.dat
1 4 170 -264 -120 1 0 0 0 1 0 0 0 1 3002.dat
1 4 220 -264 -100 1 0 0 0 1 0 0 0 1 3003.dat
1 4 270 -264 -120 1 0 0 0 1 0 0 0 1 3002.dat
0 STEP
1 4 310 -264 -200 0 0 1 0 1 0 -1 0 0 3008.dat
1 4 330 -264 -220 0 0 1 0 1 0 -1 0 0 3008.dat
1 4 90 -264 -220 0 0 1 0 1 0 -1 0 0 3004.dat
1 4 350 -264 -220 0 0 1 0 1 0 -1 0 0 3004.dat
1 4 140 -264 -300 1 0 0 0 1 0 0 0 1 3003.dat
1 4 220 -264 -320 1 0 0 0 1 0 0 0 1 2456.dat
1 4 290 -264 -310 0 0 1 0 1 0 -1 0 0 3622.dat
1 4 310 -264 -300 0 0 1 0 1 0 -1 0 0 3004.dat
1 4 150 -264 -330 1 0 0 0 1 0 0 0 1 3005.dat
0 STEP
1 272 210 -272 -350 1 0 0 0 1 0 0 0 1 3070b.dat
1 272 230 -272 -350 1 0 0 0 1 0 0 0 1 3070b.dat
1 72 130 -272 -160 0 0 1 0 1 0 -1 0 0 3023.dat
1 72 150 -272 -140 0 0 1 0 1 0 -1 0 0 3023.dat
1 72 230 -288 -130 1 0 0 0 1 0 0 0 1 3622.dat
1 72 220 -272 -110 1 0 0 0 1 0 0 0 1 3023.dat
1 72 290 -272 -140 0 0 1 0 1 0 -1 0 0 3023.dat
1 72 310 -272 -160 0 0 1 0 1 0 -1 0 0 3023.dat
1 72 110 -272 -220 0 0 1 0 1 0 -1 0 0 3023.dat
1 72 130 -288 -220 0 0 1 0 1 0 -1 0 0 3004.dat
1 72 310 -288 -230 0 0 1 0 1 0 -1 0 0 3622.dat
0 STEP
1 72 330 -272 -220 0 0 1 0 1 0 -1 0 0 3023.dat
1 72 140 -272 -290 1 0 0 0 1 0 0 0 1 3023.dat
1 72 160 -272 -310 1 0 0 0 1 0 0 0 1 3023.dat
1 72 220 -288 -310 1 0 0 0 1 0 0 0 1 3010.dat
1 72 280 -272 -310 1 0 0 0 1 0 0 0 1 3023.dat
1 72 300 -272 -290 1 0 0 0 1 0 0 0 1 3023.dat
1 72 220 -272 -330 1 0 0 0 1 0 0 0 1 3023.dat
1 4 110 -272 -150 1 0 0 0 1 0 0 0 1 3070b.dat
1 4 130 -288 -130 1 0 0 0 1 0 0 0 1 3005.dat
1 4 150 -272 -110 1 0 0 0 1 0 0 0 1 3070b.dat
1 4 170 -272 -120 0 0 1 0 1 0 -1 0 0 3023.dat
0 STEP
1 4 190 -288 -120 0 0 1 0 1 0 -1 0 0 3004.dat
1 4 220 -272 -90 1 0 0 0 1 0 0 0 1 3069b.dat
1 4 250 -288 -110 1 0 0 0 1 0 0 0 1 3005.dat
1 4 270 -272 -120 0 0 1 0 1 0 -1 0 0 3023.dat
1 4 290 -272 -110 1 0 0 0 1 0 0 0 1 3070b.dat
1 4 310 -288 -130 1 0 0 0 1 0 0 0 1 3005.dat
1 4 330 -272 -150 1 0 0 0 1 0 0 0 1 3070b.dat
1 4 90 -272 -210 1 0 0 0 1 0 0 0 1 3070b.dat
1 4 90 -272 -230 1 0 0 0 1 0 0 0 1 3070b.dat
1 4 120 -288 -190 1 0 0 0 1 0 0 0 1 3004.dat
1 4 110 -272 -170 1 0 0 0 1 0 0 0 1 3024.dat
0 STEP
1 4 320 -288 -190 1 0 0 0 1 0 0 0 1 3004.dat
1 4 330 -272 -170 1 0 0 0 1 0 0 0 1 3024.dat
1 4 350 -272 -210 1 0 0 0 1 0 0 0 1 3070b.dat
1 4 350 -272 -230 1 0 0 0 1 0 0 0 1 3070b.dat
1 4 120 -288 -250 1 0 0 0 1 0 0 0 1 3004.dat
1 4 120 -272 -270 1 0 0 0 1 0 0 0 1 3023.dat
1 4 110 -272 -290 1 0 0 0 1 0 0 0 1 3070b.dat
1 4 130 -288 -310 1 0 0 0 1 0 0 0 1 3005.dat
1 4 310 -288 -310 1 0 0 0 1 0 0 0 1 3005.dat
1 4 320 -272 -270 1 0 0 0 1 0 0 0 1 3023.dat
1 4 330 -288 -250 1 0 0 0 1 0 0 0 1 3005.dat
0 STEP
1 4 330 -272 -290 1 0 0 0 1 0 0 0 1 3070b.dat
1 4 150 -272 -330 1 0 0 0 1 0 0 0 1 3070b.dat
1 4 170 -272 -330 1 0 0 0 1 0 0 0 1 3024.dat
1 4 190 -288 -330 1 0 0 0 1 0 0 0 1 3005.dat
1 4 250 -288 -330 1 0 0 0 1 0 0 0 1 3005.dat
1 4 270 -272 -330 1 0 0 0 1 0 0 0 1 3024.dat
1 4 290 -272 -330 1 0 0 0 1 0 0 0 1 3070b.dat
0 STEP
1 272 210 -280 -330 1 0 0 0 1 0 0 0 1 3024.dat
1 272 230 -280 -330 1 0 0 0 1 0 0 0 1 3024.dat
1 4 140 -280 -150 1 0 0 0 1 0 0 0 1 3023.dat
1 4 160 -280 -130 1 0 0 0 1 0 0 0 1 3023.dat
1 4 170 -280 -110 1 0 0 0 1 0 0 0 1 3024.dat
1 4 210 -280 -110 1 0 0 0 1 0 0 0 1 3024.dat
1 4 230 -280 -110 1 0 0 0 1 0 0 0 1 3024.dat
1 4 270 -280 -110 1 0 0 0 1 0 0 0 1 3024.dat
1 4 280 -280 -130 1 0 0 0 1 0 0 0 1 3023.dat
1 4 300 -280 -150 1 0 0 0 1 0 0 0 1 3023.dat
1 4 120 -280 -170 1 0 0 0 1 0 0 0 1 3023.dat
1 4 110 -280 -210 1 0 0 0 1 0 0 0 1 3024.dat
0 STEP
1 4 110 -280 -230 1 0 0 0 1 0 0 0 1 3024.dat
1 4 320 -280 -170 1 0 0 0 1 0 0 0 1 3023.dat
1 4 330 -280 -210 1 0 0 0 1 0 0 0 1 3024.dat
1 4 330 -280 -230 1 0 0 0 1 0 0 0 1 3024.dat
1 4 110 -280 -270 1 0 0 0 1 0 0 0 1 3024.dat
1 4 130 -280 -280 0 0 1 0 1 0 -1 0 0 3023.dat
1 4 150 -280 -300 0 0 1 0 1 0 -1 0 0 3023.dat
1 4 170 -280 -320 0 0 1 0 1 0 -1 0 0 3023.dat
1 4 270 -280 -320 0 0 1 0 1 0 -1 0 0 3023.dat
1 4 290 -280 -300 0 0 1 0 1 0 -1 0 0 3023.dat
1 4 310 -280 -280 0 0 1 0 1 0 -1 0 0 3023.dat
1 4 330 -280 -270 1 0 0 0 1 0 0 0 1 3024.dat
0 STEP
1 272 220 -288 -330 1 0 0 0 1 0 0 0 1 3023.dat
1 72 170 -288 -300 0 0 1 0 1 0 -1 0 0 3023.dat
1 4 140 -288 -160 1 0 0 0 1 0 0 0 1 3022.dat
1 4 150 -288 -130 1 0 0 0 1 0 0 0 1 3024.dat
1 4 170 -288 -130 0 0 1 0 1 0 -1 0 0 3623.dat
1 4 220 -288 -110 1 0 0 0 1 0 0 0 1 3023.dat
1 4 280 -288 -140 1 0 0 0 1 0 0 0 1 3022.dat
1 4 270 -288 -110 1 0 0 0 1 0 0 0 1 3024.dat
1 4 310 -288 -150 1 0 0 0 1 0 0 0 1 3024.dat
1 4 110 -288 -170 1 0 0 0 1 0 0 0 1 3024.dat
1 4 110 -288 -220 0 0 1 0 1 0 -1 0 0 3023.dat
0 STEP
1 4 310 -288 -170 1 0 0 0 1 0 0 0 1 3623.dat
1 4 330 -288 -220 0 0 1 0 1 0 -1 0 0 3023.dat
1 4 110 -288 -270 1 0 0 0 1 0 0 0 1 3024.dat
1 4 140 -288 -280 1 0 0 0 1 0 0 0 1 3022.dat
1 4 150 -288 -310 1 0 0 0 1 0 0 0 1 3024.dat
1 4 290 -288 -290 1 0 0 0 1 0 0 0 1 3623.dat
1 4 280 -288 -310 1 0 0 0 1 0 0 0 1 3023.dat
1 4 310 -288 -270 1 0 0 0 1 0 0 0 1 3623.dat
1 4 170 -288 -330 1 0 0 0 1 0 0 0 1 3024.dat
1 4 270 -288 -330 1 0 0 0 1 0 0 0 1 3024.dat
0 STEP
1 72 170 -312 -150 1 0 0 0 1 0 0 0 1 3005.dat
1 72 270 -312 -150 1 0 0 0 1 0 0 0 1 3005.dat
1 15 130 -312 -200 0 0 1 0 1 0 -1 0 0 3008.dat
1 15 150 -312 -150 0 0 1 0 1 0 -1 0 0 3622.dat
1 15 220 -312 -120 1 0 0 0 1 0 0 0 1 2456.dat
1 15 300 -312 -150 0 0 1 0 1 0 -1 0 0 3002.dat
1 15 110 -312 -220 0 0 1 0 1 0 -1 0 0 3009.dat
1 15 310 -312 -240 0 0 1 0 1 0 -1 0 0 3009.dat
0 STEP
1 15 330 -312 -220 0 0 1 0 1 0 -1 0 0 3009.dat
1 15 130 -312 -300 0 0 1 0 1 0 -1 0 0 3004.dat
1 15 150 -312 -290 0 0 1 0 1 0 -1 0 0 3622.dat
1 15 170 -312 -310 0 0 1 0 1 0 -1 0 0 3622.dat
1 15 220 -312 -320 1 0 0 0 1 0 0 0 1 3001.dat
1 15 270 -312 -310 0 0 1 0 1 0 -1 0 0 3622.dat
1 15 290 -312 -290 0 0 1 0 1 0 -1 0 0 3622.dat
1 15 310 -312 -310 1 0 0 0 1 0 0 0 1 3005.dat
0 STEP
1 72 160 -336 -150 1 0 0 0 1 0 0 0 1 3004.dat
1 72 280 -336 -150 1 0 0 0 1 0 0 0 1 3004.dat
1 72 150 -336 -170 1 0 0 0 1 0 0 0 1 3005.dat
1 72 150 -336 -280 0 0 1 0 1 0 -1 0 0 3004.dat
1 72 170 -336 -300 0 0 1 0 1 0 -1 0 0 3004.dat
1 72 220 -336 -310 1 0 0 0 1 0 0 0 1 3010.dat
1 72 280 -336 -290 1 0 0 0 1 0 0 0 1 3004.dat
1 72 270 -336 -310 1 0 0 0 1 0 0 0 1 3005.dat
1 15 130 -320 -150 1 0 0 0 1 0 0 0 1 3024.dat
0 STEP
1 15 130 -320 -130 1 0 0 0 1 0 0 0 1 3070b.dat
1 15 150 -320 -130 1 0 0 0 1 0 0 0 1 3024.dat
1 15 220 -336 -120 1 0 0 0 1 0 0 0 1 2456.dat
1 15 290 -320 -130 1 0 0 0 1 0 0 0 1 3024.dat
1 15 310 -320 -150 1 0 0 0 1 0 0 0 1 3024.dat
1 15 310 -320 -130 1 0 0 0 1 0 0 0 1 3070b.dat
1 15 120 -336 -220 0 0 1 0 1 0 -1 0 0 2456.dat
1 15 310 -336 -170 1 0 0 0 1 0 0 0 1 3622.dat
1 15 320 -336 -220 0 0 1 0 1 0 -1 0 0 3001.dat
0 STEP
1 15 130 -320 -290 1 0 0 0 1 0 0 0 1 3024.dat
1 15 130 -320 -310 1 0 0 0 1 0 0 0 1 3070b.dat
1 15 150 -320 -310 1 0 0 0 1 0 0 0 1 3024.dat
1 15 310 -336 -270 1 0 0 0 1 0 0 0 1 3622.dat
1 15 290 -320 -310 1 0 0 0 1 0 0 0 1 3024.dat
1 15 310 -320 -290 1 0 0 0 1 0 0 0 1 3024.dat
1 15 310 -320 -310 1 0 0 0 1 0 0 0 1 3070b.dat
1 15 220 -336 -330 1 0 0 0 1 0 0 0 1 3009.dat
0 STEP
1 15 130 -328 -150 1 0 0 0 1 0 0 0 1 3024.dat
1 15 150 -328 -130 1 0 0 0 1 0 0 0 1 3024.dat
1 15 290 -328 -130 1 0 0 0 1 0 0 0 1 3024.dat
1 15 310 -328 -150 1 0 0 0 1 0 0 0 1 3024.dat
1 15 130 -328 -290 1 0 0 0 1 0 0 0 1 3024.dat
1 15 150 -328 -310 1 0 0 0 1 0 0 0 1 3024.dat
1 15 290 -328 -310 1 0 0 0 1 0 0 0 1 3024.dat
1 15 310 -328 -290 1 0 0 0 1 0 0 0 1 3024.dat
0 STEP
1 15 130 -336 -150 1 0 0 0 1 0 0 0 1 3024.dat
1 15 150 -336 -130 1 0 0 0 1 0 0 0 1 3024.dat
1 15 290 -336 -130 1 0 0 0 1 0 0 0 1 3024.dat
1 15 310 -336 -150 1 0 0 0 1 0 0 0 1 3024.dat
1 15 130 -336 -290 1 0 0 0 1 0 0 0 1 3024.dat
1 15 150 -336 -310 1 0 0 0 1 0 0 0 1 3024.dat
1 15 290 -336 -310 1 0 0 0 1 0 0 0 1 3024.dat
1 15 310 -336 -290 1 0 0 0 1 0 0 0 1 3024.dat
0 STEP
1 72 170 -360 -150 1 0 0 0 1 0 0 0 1 3005.dat
1 72 270 -360 -150 1 0 0 0 1 0 0 0 1 3005.dat
1 15 130 -360 -220 0 0 1 0 1 0 -1 0 0 3008.dat
1 15 150 -360 -150 0 0 1 0 1 0 -1 0 0 3622.dat
1 15 220 -360 -120 1 0 0 0 1 0 0 0 1 2456.dat
1 15 290 -360 -150 0 0 1 0 1 0 -1 0 0 3622.dat
1 15 310 -360 -220 0 0 1 0 1 0 -1 0 0 3008.dat
0 STEP
1 15 110 -360 -220 0 0 1 0 1 0 -1 0 0 3009.dat
1 15 330 -360 -220 0 0 1 0 1 0 -1 0 0 3009.dat
1 15 150 -360 -290 0 0 1 0 1 0 -1 0 0 3622.dat
1 15 170 -360 -310 0 0 1 0 1 0 -1 0 0 3622.dat
1 15 220 -360 -320 1 0 0 0 1 0 0 0 1 3001.dat
1 15 270 -360 -310 0 0 1 0 1 0 -1 0 0 3622.dat
1 15 290 -360 -290 0 0 1 0 1 0 -1 0 0 3622.dat
0 STEP
1 72 150 -384 -170 1 0 0 0 1 0 0 0 1 3005.dat
1 72 150 -384 -270 1 0 0 0 1 0 0 0 1 3005.dat
1 15 150 -384 -150 1 0 0 0 1 0 0 0 1 3622.dat
1 15 220 -384 -130 1 0 0 0 1 0 0 0 1 3008.dat
1 15 220 -384 -110 1 0 0 0 1 0 0 0 1 3009.dat
1 15 290 -384 -150 1 0 0 0 1 0 0 0 1 3622.dat
1 15 120 -384 -220 0 0 1 0 1 0 -1 0 0 2456.dat
0 STEP
1 15 310 -384 -170 1 0 0 0 1 0 0 0 1 3622.dat
1 15 320 -384 -220 0 0 1 0 1 0 -1 0 0 3001.dat
1 15 150 -384 -290 1 0 0 0 1 0 0 0 1 3622.dat
1 15 220 -384 -310 1 0 0 0 1 0 0 0 1 3008.dat
1 15 290 -384 -290 1 0 0 0 1 0 0 0 1 3622.dat
1 15 310 -384 -270 1 0 0 0 1 0 0 0 1 3622.dat
1 15 220 -384 -330 1 0 0 0 1 0 0 0 1 3009.dat
0 STEP
1 72 170 -408 -150 1 0 0 0 1 0 0 0 1 3005.dat
1 72 190 -408 -130 1 0 0 0 1 0 0 0 1 3005.dat
1 72 250 -408 -130 1 0 0 0 1 0 0 0 1 3005.dat
1 72 270 -408 -150 1 0 0 0 1 0 0 0 1 3005.dat
1 72 270 -392 -130 1 0 0 0 1 0 0 0 1 3024.dat
1 72 130 -408 -220 0 0 1 0 1 0 -1 0 0 3010.dat
1 72 310 -408 -220 0 0 1 0 1 0 -1 0 0 3010.dat
1 72 130 -392 -270 1 0 0 0 1 0 0 0 1 3024.dat
1 72 170 -408 -290 1 0 0 0 1 0 0 0 1 3005.dat
1 72 220 -408 -310 1 0 0 0 1 0 0 0 1 3010.dat
0 STEP
1 72 270 -408 -290 1 0 0 0 1 0 0 0 1 3005.dat
1 72 310 -392 -270 1 0 0 0 1 0 0 0 1 3024.dat
1 4 130 -408 -150 1 0 0 0 1 0 0 0 1 3005.dat
1 4 150 -408 -150 0 0 1 0 1 0 -1 0 0 3622.dat
1 4 170 -392 -120 0 0 1 0 1 0 -1 0 0 3023.dat
1 4 190 -392 -110 1 0 0 0 1 0 0 0 1 3024.dat
1 4 220 -408 -120 1 0 0 0 1 0 0 0 1 3003.dat
1 4 260 -392 -110 1 0 0 0 1 0 0 0 1 3023.dat
1 4 290 -408 -150 0 0 1 0 1 0 -1 0 0 3622.dat
1 4 310 -408 -150 1 0 0 0 1 0 0 0 1 3005.dat
0 STEP
1 4 110 -408 -220 0 0 1 0 1 0 -1 0 0 3004.dat
1 4 120 -392 -170 1 0 0 0 1 0 0 0 1 3023.dat
1 4 110 -392 -190 1 0 0 0 1 0 0 0 1 3024.dat
1 4 320 -392 -170 1 0 0 0 1 0 0 0 1 3023.dat
1 4 330 -408 -220 0 0 1 0 1 0 -1 0 0 3004.dat
1 4 330 -392 -190 1 0 0 0 1 0 0 0 1 3024.dat
1 4 110 -392 -260 0 0 1 0 1 0 -1 0 0 3023.dat
1 4 130 -408 -290 1 0 0 0 1 0 0 0 1 3005.dat
1 4 150 -408 -290 0 0 1 0 1 0 -1 0 0 3622.dat
1 4 170 -392 -320 0 0 1 0 1 0 -1 0 0 3023.dat
0 STEP
1 4 270 -392 -320 0 0 1 0 1 0 -1 0 0 3023.dat
1 4 290 -408 -290 0 0 1 0 1 0 -1 0 0 3622.dat
1 4 310 -408 -290 1 0 0 0 1 0 0 0 1 3005.dat
1 4 330 -392 -260 0 0 1 0 1 0 -1 0 0 3023.dat
1 4 190 -392 -330 1 0 0 0 1 0 0 0 1 3024.dat
1 4 220 -408 -330 1 0 0 0 1 0 0 0 1 3004.dat
1 4 250 -392 -330 1 0 0 0 1 0 0 0 1 3024.dat
0 STEP
1 72 170 -400 -130 1 0 0 0 1 0 0 0 1 3024.dat
1 72 270 -400 -130 1 0 0 0 1 0 0 0 1 3024.dat
1 72 130 -400 -170 1 0 0 0 1 0 0 0 1 3024.dat
1 72 310 -400 -170 1 0 0 0 1 0 0 0 1 3024.dat
1 72 130 -400 -270 1 0 0 0 1 0 0 0 1 3024.dat
1 72 170 -400 -310 1 0 0 0 1 0 0 0 1 3024.dat
1 72 270 -400 -310 1 0 0 0 1 0 0 0 1 3024.dat
1 72 310 -400 -270 1 0 0 0 1 0 0 0 1 3024.dat
1 4 170 -400 -110 1 0 0 0 1 0 0 0 1 3070b.dat
1 4 190 -400 -110 1 0 0 0 1 0 0 0 1 3024.dat
1 4 250 -400 -110 1 0 0 0 1 0 0 0 1 3024.dat
1 4 270 -400 -110 1 0 0 0 1 0 0 0 1 3070b.dat
0 STEP
1 4 110 -400 -190 1 0 0 0 1 0 0 0 1 3024.dat
1 4 110 -400 -170 1 0 0 0 1 0 0 0 1 3070b.dat
1 4 330 -400 -190 1 0 0 0 1 0 0 0 1 3024.dat
1 4 330 -400 -170 1 0 0 0 1 0 0 0 1 3070b.dat
1 4 110 -400 -250 1 0 0 0 1 0 0 0 1 3024.dat
1 4 110 -400 -270 1 0 0 0 1 0 0 0 1 3070b.dat
1 4 330 -400 -250 1 0 0 0 1 0 0 0 1 3024.dat
1 4 330 -400 -270 1 0 0 0 1 0 0 0 1 3070b.dat
1 4 170 -400 -330 1 0 0 0 1 0 0 0 1 3070b.dat
1 4 190 -400 -330 1 0 0 0 1 0 0 0 1 3024.dat
1 4 250 -400 -330 1 0 0 0 1 0 0 0 1 3024.dat
1 4 270 -400 -330 1 0 0 0 1 0 0 0 1 3070b.dat
0 STEP
1 4 170 -408 -130 1 0 0 0 1 0 0 0 1 3024.dat
1 4 190 -408 -110 1 0 0 0 1 0 0 0 1 3024.dat
1 4 250 -408 -110 1 0 0 0 1 0 0 0 1 3024.dat
1 4 270 -408 -130 1 0 0 0 1 0 0 0 1 3024.dat
1 4 110 -408 -190 1 0 0 0 1 0 0 0 1 3024.dat
1 4 130 -408 -170 1 0 0 0 1 0 0 0 1 3024.dat
1 4 310 -408 -170 1 0 0 0 1 0 0 0 1 3024.dat
1 4 330 -408 -190 1 0 0 0 1 0 0 0 1 3024.dat
0 STEP
1 4 110 -408 -250 1 0 0 0 1 0 0 0 1 3024.dat
1 4 130 -408 -270 1 0 0 0 1 0 0 0 1 3024.dat
1 4 170 -408 -310 1 0 0 0 1 0 0 0 1 3024.dat
1 4 270 -408 -310 1 0 0 0 1 0 0 0 1 3024.dat
1 4 310 -408 -270 1 0 0 0 1 0 0 0 1 3024.dat
1 4 330 -408 -250 1 0 0 0 1 0 0 0 1 3024.dat
1 4 190 -408 -330 1 0 0 0 1 0 0 0 1 3024.dat
1 4 250 -408 -330 1 0 0 0 1 0 0 0 1 3024.dat
0 STEP
1 72 150 -432 -150 1 0 0 0 1 0 0 0 1 3005.dat
1 72 180 -416 -150 1 0 0 0 1 0 0 0 1 3023.dat
1 72 190 -416 -130 1 0 0 0 1 0 0 0 1 3024.dat
1 72 220 -432 -130 1 0 0 0 1 0 0 0 1 3004.dat
1 72 260 -416 -150 1 0 0 0 1 0 0 0 1 3023.dat
1 72 250 -416 -130 1 0 0 0 1 0 0 0 1 3024.dat
1 72 130 -432 -220 0 0 1 0 1 0 -1 0 0 3004.dat
1 72 140 -416 -190 1 0 0 0 1 0 0 0 1 3023.dat
1 72 150 -416 -170 1 0 0 0 1 0 0 0 1 3024.dat
1 72 300 -416 -190 1 0 0 0 1 0 0 0 1 3023.dat
0 STEP
1 72 290 -416 -170 1 0 0 0 1 0 0 0 1 3024.dat
1 72 140 -416 -250 1 0 0 0 1 0 0 0 1 3023.dat
1 72 150 -416 -270 1 0 0 0 1 0 0 0 1 3024.dat
1 72 170 -416 -290 1 0 0 0 1 0 0 0 1 3024.dat
1 72 190 -416 -300 0 0 1 0 1 0 -1 0 0 3023.dat
1 72 220 -432 -310 1 0 0 0 1 0 0 0 1 3004.dat
1 72 260 -416 -290 1 0 0 0 1 0 0 0 1 3023.dat
1 72 250 -416 -310 1 0 0 0 1 0 0 0 1 3024.dat
1 72 300 -416 -250 1 0 0 0 1 0 0 0 1 3023.dat
1 72 290 -416 -270 1 0 0 0 1 0 0 0 1 3024.dat
0 STEP
1 4 130 -432 -160 0 0 1 0 1 0 -1 0 0 3004.dat
1 4 160 -432 -130 1 0 0 0 1 0 0 0 1 3004.dat
1 4 220 -432 -110 1 0 0 0 1 0 0 0 1 3010.dat
1 4 280 -432 -130 1 0 0 0 1 0 0 0 1 3004.dat
1 4 300 -432 -150 1 0 0 0 1 0 0 0 1 3004.dat
1 4 110 -432 -220 0 0 1 0 1 0 -1 0 0 3010.dat
1 4 310 -432 -170 1 0 0 0 1 0 0 0 1 3005.dat
1 4 320 -432 -220 1 0 0 0 1 0 0 0 1 3003.dat
1 4 330 -432 -190 1 0 0 0 1 0 0 0 1 3005.dat
1 4 130 -432 -280 0 0 1 0 1 0 -1 0 0 3004.dat
0 STEP
1 4 150 -432 -300 0 0 1 0 1 0 -1 0 0 3004.dat
1 4 170 -432 -310 1 0 0 0 1 0 0 0 1 3005.dat
1 4 280 -432 -310 1 0 0 0 1 0 0 0 1 3004.dat
1 4 300 -432 -290 1 0 0 0 1 0 0 0 1 3004.dat
1 4 310 -432 -270 1 0 0 0 1 0 0 0 1 3005.dat
1 4 330 -432 -250 1 0 0 0 1 0 0 0 1 3005.dat
1 4 220 -432 -330 1 0 0 0 1 0 0 0 1 3010.dat
0 STEP
1 72 170 -424 -150 1 0 0 0 1 0 0 0 1 3024.dat
1 72 190 -424 -140 0 0 1 0 1 0 -1 0 0 3023.dat
1 72 250 -424 -140 0 0 1 0 1 0 -1 0 0 3023.dat
1 72 270 -424 -150 1 0 0 0 1 0 0 0 1 3024.dat
1 72 130 -424 -190 1 0 0 0 1 0 0 0 1 3024.dat
1 72 150 -424 -180 0 0 1 0 1 0 -1 0 0 3023.dat
1 72 290 -424 -180 0 0 1 0 1 0 -1 0 0 3023.dat
1 72 310 -424 -190 1 0 0 0 1 0 0 0 1 3024.dat
0 STEP
1 72 130 -424 -250 1 0 0 0 1 0 0 0 1 3024.dat
1 72 150 -424 -260 0 0 1 0 1 0 -1 0 0 3023.dat
1 72 180 -424 -290 1 0 0 0 1 0 0 0 1 3023.dat
1 72 190 -424 -310 1 0 0 0 1 0 0 0 1 3024.dat
1 72 250 -424 -300 0 0 1 0 1 0 -1 0 0 3023.dat
1 72 270 -424 -290 1 0 0 0 1 0 0 0 1 3024.dat
1 72 290 -424 -260 0 0 1 0 1 0 -1 0 0 3023.dat
1 72 310 -424 -250 1 0 0 0 1 0 0 0 1 3024.dat
0 STEP
1 72 180 -432 -150 1 0 0 0 1 0 0 0 1 3023.dat
1 72 190 -432 -130 1 0 0 0 1 0 0 0 1 3024.dat
1 72 250 -432 -130 1 0 0 0 1 0 0 0 1 3024.dat
1 72 260 -432 -150 1 0 0 0 1 0 0 0 1 3023.dat
1 72 140 -432 -190 1 0 0 0 1 0 0 0 1 3023.dat
1 72 150 -432 -170 1 0 0 0 1 0 0 0 1 3024.dat
1 72 290 -432 -170 1 0 0 0 1 0 0 0 1 3024.dat
1 72 300 -432 -190 1 0 0 0 1 0 0 0 1 3023.dat
0 STEP
1 72 140 -432 -250 1 0 0 0 1 0 0 0 1 3023.dat
1 72 150 -432 -270 1 0 0 0 1 0 0 0 1 3024.dat
1 72 170 -432 -290 1 0 0 0 1 0 0 0 1 3024.dat
1 72 190 -432 -300 0 0 1 0 1 0 -1 0 0 3023.dat
1 72 260 -432 -290 1 0 0 0 1 0 0 0 1 3023.dat
1 72 250 -432 -310 1 0 0 0 1 0 0 0 1 3024.dat
1 72 300 -432 -250 1 0 0 0 1 0 0 0 1 3023.dat
1 72 290 -432 -270 1 0 0 0 1 0 0 0 1 3024.dat
0 STEP
1 272 220 -456 -320 1 0 0 0 1 0 0 0 1 3003.dat
1 72 190 -456 -150 1 0 0 0 1 0 0 0 1 3005.dat
1 72 250 -456 -150 1 0 0 0 1 0 0 0 1 3005.dat
1 72 290 -456 -180 0 0 1 0 1 0 -1 0 0 3004.dat
1 4 130 -456 -220 0 0 1 0 1 0 -1 0 0 3008.dat
1 4 150 -456 -160 0 0 1 0 1 0 -1 0 0 3010.dat
1 4 170 -456 -140 0 0 1 0 1 0 -1 0 0 3004.dat
1 4 220 -456 -120 1 0 0 0 1 0 0 0 1 3001.dat
1 4 280 -456 -140 1 0 0 0 1 0 0 0 1 3003.dat
1 4 310 -456 -220 0 0 1 0 1 0 -1 0 0 3008.dat
0 STEP
1 4 110 -456 -210 0 0 1 0 1 0 -1 0 0 3622.dat
1 4 330 -456 -220 0 0 1 0 1 0 -1 0 0 3010.dat
1 4 110 -456 -250 1 0 0 0 1 0 0 0 1 3005.dat
1 4 150 -456 -280 0 0 1 0 1 0 -1 0 0 3010.dat
1 4 180 -456 -300 1 0 0 0 1 0 0 0 1 3003.dat
1 4 260 -456 -300 1 0 0 0 1 0 0 0 1 3003.dat
1 4 290 -456 -280 0 0 1 0 1 0 -1 0 0 3010.dat
1 4 190 -456 -330 1 0 0 0 1 0 0 0 1 3005.dat
1 4 250 -456 -330 1 0 0 0 1 0 0 0 1 3005.dat
0 STEP
1 272 220 -480 -330 1 0 0 0 1 0 0 0 1 3004.dat
1 72 150 -480 -190 1 0 0 0 1 0 0 0 1 3005.dat
1 72 150 -480 -250 1 0 0 0 1 0 0 0 1 3005.dat
1 72 180 -480 -290 1 0 0 0 1 0 0 0 1 3004.dat
1 4 160 -480 -150 1 0 0 0 1 0 0 0 1 3010.dat
1 4 220 -480 -130 1 0 0 0 1 0 0 0 1 3008.dat
1 4 220 -480 -110 1 0 0 0 1 0 0 0 1 3010.dat
1 4 280 -480 -150 1 0 0 0 1 0 0 0 1 3010.dat
1 4 120 -480 -220 0 0 1 0 1 0 -1 0 0 3001.dat
1 4 140 -480 -170 1 0 0 0 1 0 0 0 1 3004.dat
0 STEP
1 4 300 -480 -180 1 0 0 0 1 0 0 0 1 3003.dat
1 4 320 -480 -220 1 0 0 0 1 0 0 0 1 3003.dat
1 4 330 -480 -190 1 0 0 0 1 0 0 0 1 3005.dat
1 4 140 -480 -280 1 0 0 0 1 0 0 0 1 3003.dat
1 4 220 -480 -310 1 0 0 0 1 0 0 0 1 3008.dat
1 4 280 -480 -290 1 0 0 0 1 0 0 0 1 3010.dat
1 4 310 -480 -250 1 0 0 0 1 0 0 0 1 3622.dat
1 4 300 -480 -270 1 0 0 0 1 0 0 0 1 3004.dat
1 4 190 -480 -330 1 0 0 0 1 0 0 0 1 3005.dat
1 4 250 -480 -330 1 0 0 0 1 0 0 0 1 3005.dat
0 STEP
1 72 160 -488 -160 1 0 0 0 1 0 0 0 1 3022.dat
1 72 220 -488 -140 1 0 0 0 1 0 0 0 1 3020.dat
1 72 280 -488 -160 1 0 0 0 1 0 0 0 1 3022.dat
1 72 140 -488 -220 0 0 1 0 1 0 -1 0 0 3020.dat
1 72 300 -488 -220 0 0 1 0 1 0 -1 0 0 3020.dat
1 72 160 -488 -280 1 0 0 0 1 0 0 0 1 3022.dat
1 72 220 -488 -300 1 0 0 0 1 0 0 0 1 3020.dat
1 72 280 -488 -280 1 0 0 0 1 0 0 0 1 3022.dat
1 15 130 -488 -150 1 0 0 0 1 0 0 0 1 3070b.dat
1 15 150 -488 -130 1 0 0 0 1 0 0 0 1 3070b.dat
0 STEP
1 15 170 -488 -130 1 0 0 0 1 0 0 0 1 3024.dat
1 15 190 -488 -110 1 0 0 0 1 0 0 0 1 3070b.dat
1 15 220 -488 -110 1 0 0 0 1 0 0 0 1 3023.dat
1 15 250 -488 -110 1 0 0 0 1 0 0 0 1 3070b.dat
1 15 270 -488 -130 1 0 0 0 1 0 0 0 1 3024.dat
1 15 290 -488 -130 1 0 0 0 1 0 0 0 1 3070b.dat
1 15 310 -488 -150 1 0 0 0 1 0 0 0 1 3070b.dat
1 15 110 -488 -220 0 0 1 0 1 0 -1 0 0 3023.dat
1 15 110 -488 -190 1 0 0 0 1 0 0 0 1 3070b.dat
1 15 130 -488 -170 1 0 0 0 1 0 0 0 1 3024.dat
0 STEP
1 15 310 -488 -170 1 0 0 0 1 0 0 0 1 3024.dat
1 15 330 -488 -220 0 0 1 0 1 0 -1 0 0 3023.dat
1 15 330 -488 -190 1 0 0 0 1 0 0 0 1 3070b.dat
1 15 110 -488 -250 1 0 0 0 1 0 0 0 1 3070b.dat
1 15 130 -488 -270 1 0 0 0 1 0 0 0 1 3024.dat
1 15 130 -488 -290 1 0 0 0 1 0 0 0 1 3070b.dat
1 15 150 -488 -310 1 0 0 0 1 0 0 0 1 3070b.dat
1 15 170 -488 -310 1 0 0 0 1 0 0 0 1 3024.dat
1 15 270 -488 -310 1 0 0 0 1 0 0 0 1 3024.dat
1 15 290 -488 -310 1 0 0 0 1 0 0 0 1 3070b.dat
0 STEP
1 15 310 -488 -270 1 0 0 0 1 0 0 0 1 3024.dat
1 15 310 -488 -290 1 0 0 0 1 0 0 0 1 3070b.dat
1 15 330 -488 -250 1 0 0 0 1 0 0 0 1 3070b.dat
1 15 190 -488 -330 1 0 0 0 1 0 0 0 1 3070b.dat
1 15 210 -488 -330 1 0 0 0 1 0 0 0 1 3024.dat
1 15 230 -488 -330 1 0 0 0 1 0 0 0 1 3024.dat
1 15 250 -488 -330 1 0 0 0 1 0 0 0 1 3070b.dat
0 STEP
1 72 170 -496 -170 1 0 0 0 1 0 0 0 1 3024.dat
1 72 170 -496 -270 1 0 0 0 1 0 0 0 1 3024.dat
1 15 220 -496 -150 1 0 0 0 1 0 0 0 1 3460.dat
1 15 220 -496 -130 1 0 0 0 1 0 0 0 1 3666.dat
1 15 210 -496 -110 1 0 0 0 1 0 0 0 1 3024.dat
1 15 230 -496 -110 1 0 0 0 1 0 0 0 1 3024.dat
1 15 130 -496 -220 1 0 0 0 1 0 0 0 1 3021.dat
1 15 140 -496 -180 1 0 0 0 1 0 0 0 1 3022.dat
1 15 290 -496 -170 1 0 0 0 1 0 0 0 1 3623.dat
0 STEP
1 15 300 -496 -210 0 0 1 0 1 0 -1 0 0 3021.dat
1 15 330 -496 -210 1 0 0 0 1 0 0 0 1 3024.dat
1 15 330 -496 -230 1 0 0 0 1 0 0 0 1 3024.dat
1 15 140 -496 -260 1 0 0 0 1 0 0 0 1 3022.dat
1 15 220 -496 -290 1 0 0 0 1 0 0 0 1 3460.dat
1 15 220 -496 -310 1 0 0 0 1 0 0 0 1 3666.dat
1 15 290 -496 -270 1 0 0 0 1 0 0 0 1 3623.dat
1 15 300 -496 -250 1 0 0 0 1 0 0 0 1 3023.dat
1 15 220 -496 -330 1 0 0 0 1 0 0 0 1 3023.dat
0 STEP
1 72 270 -504 -170 1 0 0 0 1 0 0 0 1 3024.dat
1 15 150 -504 -220 0 0 1 0 1 0 -1 0 0 3460.dat
1 15 170 -504 -150 0 0 1 0 1 0 -1 0 0 3623.dat
1 15 190 -504 -140 0 0 1 0 1 0 -1 0 0 3023.dat
1 15 220 -504 -130 0 0 1 0 1 0 -1 0 0 3021.dat
1 15 260 -504 -140 1 0 0 0 1 0 0 0 1 3022.dat
1 15 290 -504 -220 0 0 1 0 1 0 -1 0 0 3460.dat
1 15 110 -504 -220 0 0 1 0 1 0 -1 0 0 3023.dat
0 STEP
1 15 130 -504 -220 0 0 1 0 1 0 -1 0 0 3666.dat
1 15 310 -504 -220 0 0 1 0 1 0 -1 0 0 3666.dat
1 15 330 -504 -220 0 0 1 0 1 0 -1 0 0 3023.dat
1 15 170 -504 -290 0 0 1 0 1 0 -1 0 0 3623.dat
1 15 220 -504 -300 1 0 0 0 1 0 0 0 1 3020.dat
1 15 270 -504 -290 0 0 1 0 1 0 -1 0 0 3623.dat
1 15 210 -504 -330 1 0 0 0 1 0 0 0 1 3024.dat
1 15 230 -504 -330 1 0 0 0 1 0 0 0 1 3024.dat
0 STEP
1 72 170 -528 -270 1 0 0 0 1 0 0 0 1 3005.dat
1 15 220 -528 -150 1 0 0 0 1 0 0 0 1 3008.dat
1 15 220 -528 -130 1 0 0 0 1 0 0 0 1 3009.dat
1 15 220 -528 -110 1 0 0 0 1 0 0 0 1 3004.dat
1 15 130 -528 -220 1 0 0 0 1 0 0 0 1 3002.dat
1 15 150 -528 -170 1 0 0 0 1 0 0 0 1 3622.dat
1 15 140 -528 -190 1 0 0 0 1 0 0 0 1 3004.dat
1 15 290 -528 -170 1 0 0 0 1 0 0 0 1 3622.dat
0 STEP
1 15 300 -528 -220 0 0 1 0 1 0 -1 0 0 3001.dat
1 15 330 -528 -210 1 0 0 0 1 0 0 0 1 3005.dat
1 15 330 -528 -230 1 0 0 0 1 0 0 0 1 3005.dat
1 15 140 -528 -260 1 0 0 0 1 0 0 0 1 3003.dat
1 15 220 -528 -290 1 0 0 0 1 0 0 0 1 3008.dat
1 15 220 -528 -310 1 0 0 0 1 0 0 0 1 3009.dat
1 15 290 -528 -270 1 0 0 0 1 0 0 0 1 3622.dat
1 15 220 -528 -330 1 0 0 0 1 0 0 0 1 3004.dat
0 STEP
1 72 220 -552 -150 1 0 0 0 1 0 0 0 1 3004.dat
1 72 220 -536 -130 1 0 0 0 1 0 0 0 1 3023.dat
1 72 130 -536 -220 0 0 1 0 1 0 -1 0 0 3023.dat
1 72 270 -552 -170 1 0 0 0 1 0 0 0 1 3005.dat
1 72 310 -536 -220 0 0 1 0 1 0 -1 0 0 3023.dat
1 72 220 -552 -290 1 0 0 0 1 0 0 0 1 3010.dat
1 72 220 -536 -310 1 0 0 0 1 0 0 0 1 3023.dat
1 15 150 -552 -220 0 0 1 0 1 0 -1 0 0 3008.dat
1 15 170 -552 -150 0 0 1 0 1 0 -1 0 0 3622.dat
0 STEP
1 15 190 -552 -140 0 0 1 0 1 0 -1 0 0 3004.dat
1 15 210 -536 -110 1 0 0 0 1 0 0 0 1 3070b.dat
1 15 230 -536 -110 1 0 0 0 1 0 0 0 1 3070b.dat
1 15 260 -552 -140 1 0 0 0 1 0 0 0 1 3003.dat
1 15 290 -552 -220 0 0 1 0 1 0 -1 0 0 3008.dat
1 15 110 -536 -220 0 0 1 0 1 0 -1 0 0 3069b.dat
1 15 130 -552 -180 0 0 1 0 1 0 -1 0 0 3004.dat
1 15 310 -552 -180 0 0 1 0 1 0 -1 0 0 3004.dat
1 15 330 -536 -220 0 0 1 0 1 0 -1 0 0 3069b.dat
0 STEP
1 15 130 -552 -260 0 0 1 0 1 0 -1 0 0 3004.dat
1 15 170 -552 -290 0 0 1 0 1 0 -1 0 0 3622.dat
1 15 190 -552 -310 1 0 0 0 1 0 0 0 1 3005.dat
1 15 250 -552 -310 1 0 0 0 1 0 0 0 1 3005.dat
1 15 270 -552 -290 0 0 1 0 1 0 -1 0 0 3622.dat
1 15 310 -552 -260 0 0 1 0 1 0 -1 0 0 3004.dat
1 15 210 -536 -330 1 0 0 0 1 0 0 0 1 3070b.dat
1 15 230 -536 -330 1 0 0 0 1 0 0 0 1 3070b.dat
0 STEP
1 15 210 -544 -130 1 0 0 0 1 0 0 0 1 3024.dat
1 15 230 -544 -130 1 0 0 0 1 0 0 0 1 3024.dat
1 15 130 -544 -210 1 0 0 0 1 0 0 0 1 3024.dat
1 15 130 -544 -230 1 0 0 0 1 0 0 0 1 3024.dat
1 15 310 -544 -210 1 0 0 0 1 0 0 0 1 3024.dat
1 15 310 -544 -230 1 0 0 0 1 0 0 0 1 3024.dat
1 15 210 -544 -310 1 0 0 0 1 0 0 0 1 3024.dat
1 15 230 -544 -310 1 0 0 0 1 0 0 0 1 3024.dat
0 STEP
1 15 220 -552 -130 1 0 0 0 1 0 0 0 1 3023.dat
1 15 130 -552 -220 0 0 1 0 1 0 -1 0 0 3023.dat
1 15 310 -552 -220 0 0 1 0 1 0 -1 0 0 3023.dat
1 15 220 -552 -310 1 0 0 0 1 0 0 0 1 3023.dat
0 STEP
1 72 170 -576 -170 1 0 0 0 1 0 0 0 1 3005.dat
1 72 170 -576 -270 1 0 0 0 1 0 0 0 1 3005.dat
1 15 220 -576 -150 1 0 0 0 1 0 0 0 1 3008.dat
1 15 220 -576 -130 1 0 0 0 1 0 0 0 1 3009.dat
1 15 140 -576 -220 0 0 1 0 1 0 -1 0 0 2456.dat
1 15 290 -576 -170 1 0 0 0 1 0 0 0 1 3622.dat
1 15 300 -576 -220 0 0 1 0 1 0 -1 0 0 3001.dat
1 15 220 -576 -290 1 0 0 0 1 0 0 0 1 3008.dat
1 15 220 -576 -310 1 0 0 0 1 0 0 0 1 3009.dat
1 15 290 -576 -270 1 0 0 0 1 0 0 0 1 3622.dat
0 STEP
1 72 170 -600 -170 1 0 0 0 1 0 0 0 1 3005.dat
1 72 270 -600 -170 1 0 0 0 1 0 0 0 1 3005.dat
1 4 150 -600 -220 0 0 1 0 1 0 -1 0 0 3008.dat
1 4 220 -600 -140 1 0 0 0 1 0 0 0 1 2456.dat
1 4 290 -600 -220 0 0 1 0 1 0 -1 0 0 3008.dat
1 4 130 -600 -220 0 0 1 0 1 0 -1 0 0 3009.dat
1 4 310 -600 -220 0 0 1 0 1 0 -1 0 0 3009.dat
1 4 170 -600 -290 0 0 1 0 1 0 -1 0 0 3622.dat
1 4 220 -600 -300 1 0 0 0 1 0 0 0 1 3001.dat
1 4 270 -600 -290 0 0 1 0 1 0 -1 0 0 3622.dat
0 STEP
1 72 170 -624 -170 1 0 0 0 1 0 0 0 1 3005.dat
1 72 170 -624 -270 1 0 0 0 1 0 0 0 1 3005.dat
1 4 220 -624 -150 1 0 0 0 1 0 0 0 1 3008.dat
1 4 220 -624 -130 1 0 0 0 1 0 0 0 1 3009.dat
1 4 140 -624 -220 0 0 1 0 1 0 -1 0 0 2456.dat
1 4 290 -624 -170 1 0 0 0 1 0 0 0 1 3622.dat
1 4 300 -624 -220 0 0 1 0 1 0 -1 0 0 3001.dat
1 4 220 -624 -290 1 0 0 0 1 0 0 0 1 3008.dat
1 4 220 -624 -310 1 0 0 0 1 0 0 0 1 3009.dat
1 4 290 -624 -270 1 0 0 0 1 0 0 0 1 3622.dat
0 STEP
1 72 160 -632 -180 1 0 0 0 1 0 0 0 1 3035.dat
1 72 160 -632 -110 0 0 1 0 1 0 -1 0 0 3021.dat
1 72 200 -632 -110 0 0 1 0 1 0 -1 0 0 3021.dat
1 72 230 -632 -110 0 0 1 0 1 0 -1 0 0 3623.dat
1 72 250 -632 -160 0 0 1 0 1 0 -1 0 0 3460.dat
1 72 280 -632 -160 0 0 1 0 1 0 -1 0 0 3034.dat
1 72 330 -632 -160 1 0 0 0 1 0 0 0 1 3021.dat
1 72 160 -632 -260 1 0 0 0 1 0 0 0 1 3035.dat
0 STEP
1 72 330 -632 -200 1 0 0 0 1 0 0 0 1 3021.dat
1 72 330 -632 -240 1 0 0 0 1 0 0 0 1 3021.dat
1 72 160 -632 -330 0 0 1 0 1 0 -1 0 0 3021.dat
1 72 200 -632 -330 0 0 1 0 1 0 -1 0 0 3021.dat
1 72 230 -632 -330 0 0 1 0 1 0 -1 0 0 3623.dat
1 72 250 -632 -300 0 0 1 0 1 0 -1 0 0 3666.dat
1 72 280 -632 -300 0 0 1 0 1 0 -1 0 0 3795.dat
1 72 330 -632 -280 1 0 0 0 1 0 0 0 1 3021.dat
0 STEP
1 72 90 -640 -220 0 0 1 0 1 0 -1 0 0 3460.dat
1 72 110 -640 -140 0 0 1 0 1 0 -1 0 0 3023.dat
1 72 140 -640 -110 1 0 0 0 1 0 0 0 1 3023.dat
1 72 200 -640 -130 1 0 0 0 1 0 0 0 1 4162.dat
1 72 150 -640 -150 1 0 0 0 1 0 0 0 1 63864.dat
1 72 220 -640 -90 1 0 0 0 1 0 0 0 1 3460.dat
1 72 220 -640 -110 1 0 0 0 1 0 0 0 1 6636.dat
1 72 220 -640 -150 1 0 0 0 1 0 0 0 1 3710.dat
1 72 290 -640 -150 1 0 0 0 1 0 0 0 1 63864.dat
1 72 300 -640 -110 1 0 0 0 1 0 0 0 1 3023.dat
1 72 300 -640 -130 1 0 0 0 1 0 0 0 1 3069b.dat
0 STEP
1 72 330 -640 -140 0 0 1 0 1 0 -1 0 0 3023.dat
1 72 350 -640 -220 0 0 1 0 1 0 -1 0 0 3460.dat
1 72 120 -640 -200 0 0 1 0 1 0 -1 0 0 87079.dat
1 72 220 -640 -220 1 0 0 0 1 0 0 0 1 3035.dat
1 72 150 -640 -170 1 0 0 0 1 0 0 0 1 3070b.dat
1 72 220 -640 -170 1 0 0 0 1 0 0 0 1 3666.dat
1 72 310 -640 -170 1 0 0 0 1 0 0 0 1 63864.dat
1 72 320 -640 -220 0 0 1 0 1 0 -1 0 0 87079.dat
1 72 110 -640 -300 0 0 1 0 1 0 -1 0 0 3023.dat
1 72 120 -640 -260 1 0 0 0 1 0 0 0 1 3068b.dat
1 72 150 -640 -300 1 0 0 0 1 0 0 0 1 26603.dat
0 STEP
1 72 150 -640 -270 1 0 0 0 1 0 0 0 1 3070b.dat
1 72 220 -640 -270 1 0 0 0 1 0 0 0 1 3666.dat
1 72 220 -640 -290 1 0 0 0 1 0 0 0 1 3710.dat
1 72 240 -640 -310 1 0 0 0 1 0 0 0 1 6636.dat
1 72 290 -640 -290 1 0 0 0 1 0 0 0 1 63864.dat
1 72 310 -640 -270 1 0 0 0 1 0 0 0 1 63864.dat
1 72 330 -640 -300 0 0 1 0 1 0 -1 0 0 3023.dat
1 72 140 -640 -330 1 0 0 0 1 0 0 0 1 3023.dat
1 72 220 -640 -350 1 0 0 0 1 0 0 0 1 3460.dat
1 72 220 -640 -330 1 0 0 0 1 0 0 0 1 6636.dat
1 72 300 -640 -330 1 0 0 0 1 0 0 0 1 3023.dat
0 STEP
1 72 110 -632 -130 1 0 0 0 1 0 0 0 1 3024.dat
1 72 130 -632 -120 0 0 1 0 1 0 -1 0 0 3023.dat
1 72 310 -632 -120 0 0 1 0 1 0 -1 0 0 3023.dat
1 72 330 -632 -130 1 0 0 0 1 0 0 0 1 3024.dat
1 72 120 -632 -310 1 0 0 0 1 0 0 0 1 3023.dat
1 72 320 -632 -310 1 0 0 0 1 0 0 0 1 3023.dat
1 72 130 -632 -330 1 0 0 0 1 0 0 0 1 3024.dat
1 72 310 -632 -330 1 0 0 0 1 0 0 0 1 3024.dat
0 STEP
1 0 90 -648 -200 0 0 1 0 1 0 -1 0 0 3666.dat
1 0 110 -648 -130 1 0 0 0 1 0 0 0 1 3024.dat
1 0 110 -648 -150 1 0 0 0 1 0 0 0 1 3024.dat
1 0 130 -648 -110 1 0 0 0 1 0 0 0 1 3024.dat
1 0 200 -648 -90 1 0 0 0 1 0 0 0 1 3666.dat
1 0 150 -648 -110 1 0 0 0 1 0 0 0 1 3024.dat
1 0 220 -648 -220 0 0 1 0 1 0 -1 0 0 3034.dat
1 0 280 -648 -90 1 0 0 0 1 0 0 0 1 3023.dat
1 0 290 -648 -110 1 0 0 0 1 0 0 0 1 3024.dat
1 0 310 -648 -110 1 0 0 0 1 0 0 0 1 3024.dat
1 0 330 -648 -130 1 0 0 0 1 0 0 0 1 3024.dat
0 STEP
1 0 340 -648 -150 1 0 0 0 1 0 0 0 1 3023.dat
1 0 150 -648 -220 0 0 1 0 1 0 -1 0 0 3023.dat
1 0 290 -648 -220 0 0 1 0 1 0 -1 0 0 3023.dat
1 0 350 -648 -220 0 0 1 0 1 0 -1 0 0 3666.dat
1 0 90 -648 -280 0 0 1 0 1 0 -1 0 0 3023.dat
1 0 110 -648 -290 1 0 0 0 1 0 0 0 1 3024.dat
1 0 110 -648 -310 1 0 0 0 1 0 0 0 1 3024.dat
1 0 340 -648 -290 1 0 0 0 1 0 0 0 1 3023.dat
1 0 330 -648 -310 1 0 0 0 1 0 0 0 1 3024.dat
1 0 130 -648 -330 1 0 0 0 1 0 0 0 1 3024.dat
1 0 150 -648 -340 0 0 1 0 1 0 -1 0 0 3023.dat
0 STEP
1 0 220 -648 -350 1 0 0 0 1 0 0 0 1 3666.dat
1 0 290 -648 -340 0 0 1 0 1 0 -1 0 0 3023.dat
1 0 310 -648 -330 1 0 0 0 1 0 0 0 1 3024.dat
1 46 190 -648 -220 0 0 1 0 1 0 -1 0 0 3460.dat
1 46 250 -648 -220 0 0 1 0 1 0 -1 0 0 3460.dat
1 46 150 -648 -190 1 0 0 0 1 0 0 0 1 3024.dat
1 46 170 -648 -220 0 0 1 0 1 0 -1 0 0 3666.dat
1 46 270 -648 -220 0 0 1 0 1 0 -1 0 0 3666.dat
1 46 290 -648 -190 1 0 0 0 1 0 0 0 1 3024.dat
1 46 150 -648 -250 1 0 0 0 1 0 0 0 1 3024.dat
1 46 290 -648 -250 1 0 0 0 1 0 0 0 1 3024.dat
0 STEP
1 72 310 -640 -310 1 0 0 0 1 0 0 0 1 3070b.dat
0 STEP
1 0 90 -656 -220 0 0 1 0 1 0 -1 0 0 3460.dat
1 0 110 -656 -140 0 0 1 0 1 0 -1 0 0 3023.dat
1 0 140 -656 -110 1 0 0 0 1 0 0 0 1 3023.dat
1 0 220 -656 -90 1 0 0 0 1 0 0 0 1 3460.dat
1 0 220 -672 -150 1 0 0 0 1 0 0 0 1 3004.dat
1 0 300 -656 -110 1 0 0 0 1 0 0 0 1 3023.dat
1 0 330 -656 -140 0 0 1 0 1 0 -1 0 0 3023.dat
1 0 350 -656 -220 0 0 1 0 1 0 -1 0 0 3460.dat
1 0 220 -672 -220 1 0 0 0 1 0 0 0 1 3007.dat
1 0 110 -656 -300 0 0 1 0 1 0 -1 0 0 3023.dat
1 0 220 -672 -290 1 0 0 0 1 0 0 0 1 3004.dat
1 0 330 -656 -300 0 0 1 0 1 0 -1 0 0 3023.dat
0 STEP
1 0 140 -656 -330 1 0 0 0 1 0 0 0 1 3023.dat
1 0 220 -656 -350 1 0 0 0 1 0 0 0 1 3460.dat
1 0 300 -656 -330 1 0 0 0 1 0 0 0 1 3023.dat
1 46 190 -672 -150 1 0 0 0 1 0 0 0 1 3005.dat
1 46 250 -672 -150 1 0 0 0 1 0 0 0 1 3005.dat
1 46 220 -672 -190 1 0 0 0 1 0 0 0 1 3008.dat
1 46 220 -672 -170 1 0 0 0 1 0 0 0 1 3009.dat
1 46 220 -672 -250 1 0 0 0 1 0 0 0 1 3008.dat
1 46 220 -672 -270 1 0 0 0 1 0 0 0 1 3009.dat
1 46 190 -672 -290 1 0 0 0 1 0 0 0 1 3005.dat
1 46 250 -672 -290 1 0 0 0 1 0 0 0 1 3005.dat
0 STEP
1 0 90 -664 -200 0 0 1 0 1 0 -1 0 0 6636.dat
1 0 110 -664 -130 1 0 0 0 1 0 0 0 1 3070b.dat
1 0 110 -664 -150 1 0 0 0 1 0 0 0 1 3070b.dat
1 0 130 -664 -110 1 0 0 0 1 0 0 0 1 3070b.dat
1 0 200 -664 -90 1 0 0 0 1 0 0 0 1 6636.dat
1 0 150 -664 -110 1 0 0 0 1 0 0 0 1 3070b.dat
1 0 280 -664 -90 1 0 0 0 1 0 0 0 1 3069b.dat
1 0 290 -664 -110 1 0 0 0 1 0 0 0 1 3070b.dat
1 0 310 -664 -110 1 0 0 0 1 0 0 0 1 3070b.dat
1 0 330 -664 -130 1 0 0 0 1 0 0 0 1 3070b.dat
1 0 340 -664 -150 1 0 0 0 1 0 0 0 1 3069b.dat
0 STEP
1 0 350 -664 -220 0 0 1 0 1 0 -1 0 0 6636.dat
1 0 90 -664 -280 0 0 1 0 1 0 -1 0 0 3069b.dat
1 0 110 -664 -290 1 0 0 0 1 0 0 0 1 3070b.dat
1 0 110 -664 -310 1 0 0 0 1 0 0 0 1 3070b.dat
1 0 340 -664 -290 1 0 0 0 1 0 0 0 1 3069b.dat
1 0 330 -664 -310 1 0 0 0 1 0 0 0 1 3070b.dat
1 0 130 -664 -330 1 0 0 0 1 0 0 0 1 3070b.dat
1 0 150 -664 -340 0 0 1 0 1 0 -1 0 0 3069b.dat
1 0 220 -664 -350 1 0 0 0 1 0 0 0 1 6636.dat
1 0 290 -664 -340 0 0 1 0 1 0 -1 0 0 3069b.dat
1 0 310 -664 -330 1 0 0 0 1 0 0 0 1 3070b.dat
0 STEP
1 0 220 -696 -220 0 0 1 0 1 0 -1 0 0 3007.dat
1 0 150 -696 -220 0 0 1 0 1 0 -1 0 0 3004.dat
1 0 290 -696 -220 0 0 1 0 1 0 -1 0 0 3004.dat
1 46 190 -696 -220 0 0 1 0 1 0 -1 0 0 3008.dat
1 46 250 -696 -220 0 0 1 0 1 0 -1 0 0 3008.dat
1 46 150 -696 -190 1 0 0 0 1 0 0 0 1 3005.dat
1 46 170 -696 -220 0 0 1 0 1 0 -1 0 0 3009.dat
1 46 270 -696 -220 0 0 1 0 1 0 -1 0 0 3009.dat
1 46 290 -696 -190 1 0 0 0 1 0 0 0 1 3005.dat
1 46 150 -696 -250 1 0 0 0 1 0 0 0 1 3005.dat
1 46 290 -696 -250 1 0 0 0 1 0 0 0 1 3005.dat
0 STEP
1 0 210 -720 -150 1 0 0 0 1 0 0 0 1 3005.dat
1 0 230 -720 -150 1 0 0 0 1 0 0 0 1 3005.dat
1 0 220 -720 -220 1 0 0 0 1 0 0 0 1 3007.dat
1 0 220 -720 -290 1 0 0 0 1 0 0 0 1 3004.dat
1 46 190 -720 -150 1 0 0 0 1 0 0 0 1 3005.dat
1 46 250 -720 -150 1 0 0 0 1 0 0 0 1 3005.dat
1 46 220 -720 -190 1 0 0 0 1 0 0 0 1 3008.dat
1 46 220 -720 -170 1 0 0 0 1 0 0 0 1 3009.dat
1 46 220 -720 -250 1 0 0 0 1 0 0 0 1 3008.dat
1 46 220 -720 -270 1 0 0 0 1 0 0 0 1 3009.dat
1 46 190 -720 -290 1 0 0 0 1 0 0 0 1 3005.dat
1 46 250 -720 -290 1 0 0 0 1 0 0 0 1 3005.dat
0 STEP
1 0 220 -728 -150 1 0 0 0 1 0 0 0 1 3710.dat
1 0 150 -728 -220 0 0 1 0 1 0 -1 0 0 3710.dat
1 0 180 -728 -180 1 0 0 0 1 0 0 0 1 3022.dat
1 0 260 -728 -180 1 0 0 0 1 0 0 0 1 3022.dat
1 0 270 -728 -240 0 0 1 0 1 0 -1 0 0 3710.dat
1 0 290 -728 -220 0 0 1 0 1 0 -1 0 0 3710.dat
1 0 180 -728 -260 1 0 0 0 1 0 0 0 1 3022.dat
1 0 190 -728 -290 1 0 0 0 1 0 0 0 1 3024.dat
0 STEP
1 0 210 -728 -280 0 0 1 0 1 0 -1 0 0 3023.dat
1 0 230 -728 -290 1 0 0 0 1 0 0 0 1 3024.dat
1 0 250 -728 -270 0 0 1 0 1 0 -1 0 0 3623.dat
1 72 180 -744 -220 1 0 0 0 1 0 0 0 1 3003.dat
1 72 210 -744 -220 0 0 1 0 1 0 -1 0 0 3010.dat
1 72 210 -728 -170 1 0 0 0 1 0 0 0 1 3024.dat
1 72 230 -744 -220 0 0 1 0 1 0 -1 0 0 3009.dat
1 72 250 -744 -220 0 0 1 0 1 0 -1 0 0 3004.dat
0 STEP
1 0 210 -736 -150 1 0 0 0 1 0 0 0 1 3623.dat
1 0 250 -736 -170 0 0 1 0 1 0 -1 0 0 3623.dat
1 0 170 -736 -190 1 0 0 0 1 0 0 0 1 3623.dat
1 0 150 -736 -230 0 0 1 0 1 0 -1 0 0 3623.dat
1 0 190 -736 -170 1 0 0 0 1 0 0 0 1 3623.dat
1 0 270 -736 -200 0 0 1 0 1 0 -1 0 0 3710.dat
1 0 290 -736 -210 0 0 1 0 1 0 -1 0 0 3623.dat
0 STEP
1 0 170 -736 -260 0 0 1 0 1 0 -1 0 0 3023.dat
1 0 190 -736 -270 0 0 1 0 1 0 -1 0 0 3623.dat
1 0 230 -736 -290 1 0 0 0 1 0 0 0 1 3623.dat
1 0 270 -736 -250 1 0 0 0 1 0 0 0 1 3623.dat
1 0 260 -736 -270 1 0 0 0 1 0 0 0 1 3023.dat
1 72 210 -736 -270 1 0 0 0 1 0 0 0 1 3024.dat
0 STEP
1 72 180 -744 -190 1 0 0 0 1 0 0 0 1 3023.dat
1 72 250 -744 -180 0 0 1 0 1 0 -1 0 0 3023.dat
1 72 180 -744 -250 1 0 0 0 1 0 0 0 1 3023.dat
1 72 250 -744 -260 0 0 1 0 1 0 -1 0 0 3023.dat
1 4 220 -744 -140 1 0 0 0 1 0 0 0 1 3020.dat
1 4 270 -744 -200 0 0 1 0 1 0 -1 0 0 3666.dat
1 4 140 -744 -220 0 0 1 0 1 0 -1 0 0 3020.dat
1 4 180 -744 -170 1 0 0 0 1 0 0 0 1 3710.dat
1 4 300 -744 -220 0 0 1 0 1 0 -1 0 0 3020.dat
1 4 180 -744 -270 1 0 0 0 1 0 0 0 1 3710.dat
1 4 220 -744 -300 1 0 0 0 1 0 0 0 1 3020.dat
1 4 270 -744 -280 0 0 1 0 1 0 -1 0 0 3023.dat
0 STEP
1 72 220 -768 -220 1 0 0 0 1 0 0 0 1 3001.dat
1 72 190 -752 -190 1 0 0 0 1 0 0 0 1 3024.dat
1 72 220 -768 -190 1 0 0 0 1 0 0 0 1 3004.dat
1 72 260 -752 -190 1 0 0 0 1 0 0 0 1 3023.dat
1 72 270 -752 -240 0 0 1 0 1 0 -1 0 0 3710.dat
1 72 220 -768 -250 1 0 0 0 1 0 0 0 1 3004.dat
1 4 220 -752 -160 1 0 0 0 1 0 0 0 1 3795.dat
0 STEP
1 4 150 -752 -220 0 0 1 0 1 0 -1 0 0 3666.dat
1 4 170 -752 -240 0 0 1 0 1 0 -1 0 0 3666.dat
1 4 290 -752 -220 0 0 1 0 1 0 -1 0 0 3666.dat
1 4 190 -752 -270 0 0 1 0 1 0 -1 0 0 3623.dat
1 4 220 -752 -280 1 0 0 0 1 0 0 0 1 3022.dat
1 4 250 -752 -270 0 0 1 0 1 0 -1 0 0 3623.dat
1 4 270 -752 -290 1 0 0 0 1 0 0 0 1 3024.dat
0 STEP
1 4 170 -744 -150 1 0 0 0 1 0 0 0 1 3024.dat
1 4 290 -744 -170 1 0 0 0 1 0 0 0 1 3024.dat
1 4 170 -744 -290 1 0 0 0 1 0 0 0 1 3024.dat
1 4 290 -744 -270 1 0 0 0 1 0 0 0 1 3024.dat
0 STEP
1 72 270 -760 -220 0 0 1 0 1 0 -1 0 0 3023.dat
1 72 190 -760 -260 0 0 1 0 1 0 -1 0 0 3023.dat
1 4 190 -760 -150 1 0 0 0 1 0 0 0 1 3024.dat
1 4 230 -760 -150 1 0 0 0 1 0 0 0 1 63864.dat
1 4 150 -760 -220 0 0 1 0 1 0 -1 0 0 2431.dat
1 4 180 -760 -180 1 0 0 0 1 0 0 0 1 3022.dat
1 4 170 -760 -240 0 0 1 0 1 0 -1 0 0 3710.dat
0 STEP
1 4 240 -760 -170 1 0 0 0 1 0 0 0 1 3710.dat
1 4 270 -760 -190 1 0 0 0 1 0 0 0 1 3623.dat
1 4 290 -760 -220 0 0 1 0 1 0 -1 0 0 3069b.dat
1 4 190 -760 -290 1 0 0 0 1 0 0 0 1 3024.dat
1 4 240 -760 -270 1 0 0 0 1 0 0 0 1 3710.dat
1 4 230 -760 -290 1 0 0 0 1 0 0 0 1 63864.dat
1 4 270 -760 -250 1 0 0 0 1 0 0 0 1 3623.dat
0 STEP
1 72 190 -768 -190 1 0 0 0 1 0 0 0 1 3024.dat
1 72 250 -768 -190 1 0 0 0 1 0 0 0 1 3024.dat
1 72 190 -768 -250 1 0 0 0 1 0 0 0 1 3024.dat
1 72 250 -768 -250 1 0 0 0 1 0 0 0 1 3024.dat
1 4 170 -768 -220 0 0 1 0 1 0 -1 0 0 3023.dat
1 4 170 -768 -190 1 0 0 0 1 0 0 0 1 3070b.dat
1 4 190 -768 -170 1 0 0 0 1 0 0 0 1 3070b.dat
1 4 220 -768 -170 1 0 0 0 1 0 0 0 1 3023.dat
1 4 250 -768 -170 1 0 0 0 1 0 0 0 1 3070b.dat
0 STEP
1 4 270 -768 -210 1 0 0 0 1 0 0 0 1 3024.dat
1 4 270 -768 -230 1 0 0 0 1 0 0 0 1 3024.dat
1 4 270 -768 -190 1 0 0 0 1 0 0 0 1 3070b.dat
1 4 170 -768 -250 1 0 0 0 1 0 0 0 1 3070b.dat
1 4 190 -768 -270 1 0 0 0 1 0 0 0 1 3070b.dat
1 4 220 -768 -270 1 0 0 0 1 0 0 0 1 3023.dat
1 4 250 -768 -270 1 0 0 0 1 0 0 0 1 3070b.dat
1 4 270 -768 -250 1 0 0 0 1 0 0 0 1 3070b.dat
0 STEP
1 4 170 -776 -210 1 0 0 0 1 0 0 0 1 3070b.dat
1 4 170 -776 -230 1 0 0 0 1 0 0 0 1 3070b.dat
1 4 220 -776 -220 1 0 0 0 1 0 0 0 1 3031.dat
1 4 210 -776 -170 1 0 0 0 1 0 0 0 1 3070b.dat
1 4 230 -776 -170 1 0 0 0 1 0 0 0 1 3070b.dat
1 4 270 -776 -220 0 0 1 0 1 0 -1 0 0 3069b.dat
1 4 210 -776 -270 1 0 0 0 1 0 0 0 1 3070b.dat
1 4 230 -776 -270 1 0 0 0 1 0 0 0 1 3070b.dat
0 STEP
1 4 220 -784 -220 1 0 0 0 1 0 0 0 1 3020.dat
1 4 190 -784 -190 1 0 0 0 1 0 0 0 1 3070b.dat
1 4 220 -784 -190 1 0 0 0 1 0 0 0 1 3023.dat
1 4 250 -784 -190 1 0 0 0 1 0 0 0 1 3070b.dat
1 4 190 -784 -250 1 0 0 0 1 0 0 0 1 3070b.dat
1 4 220 -784 -250 1 0 0 0 1 0 0 0 1 3023.dat
1 4 250 -784 -250 1 0 0 0 1 0 0 0 1 3070b.dat
0 STEP
1 72 220 -792 -220 1 0 0 0 1 0 0 0 1 3022.dat
1 4 190 -792 -220 0 0 1 0 1 0 -1 0 0 3069b.dat
1 4 210 -792 -190 1 0 0 0 1 0 0 0 1 3070b.dat
1 4 230 -792 -190 1 0 0 0 1 0 0 0 1 3070b.dat
1 4 250 -792 -220 0 0 1 0 1 0 -1 0 0 3069b.dat
1 4 210 -792 -250 1 0 0 0 1 0 0 0 1 3070b.dat
1 4 230 -792 -250 1 0 0 0 1 0 0 0 1 3070b.dat
0 STEP
1 4 220 -800 -210 1 0 0 0 1 0 0 0 1 3023.dat
1 4 220 -800 -230 1 0 0 0 1 0 0 0 1 3023.dat
0 STEP
1 0 220 -808 -220 1 0 0 0 1 0 0 0 1 3022.dat
0 STEP
1 0 220 -816 -210 1 0 0 0 1 0 0 0 1 3069b.dat
1 0 220 -816 -230 1 0 0 0 1 0 0 0 1 3069b.dat
0 STEP
